<?xml version="1.0" encoding="utf-8"?>
<!-- Generator: Adobe Illustrator 17.0.0, SVG Export Plug-In . SVG Version: 6.00 Build 0)  -->
<!DOCTYPE svg PUBLIC "-//W3C//DTD SVG 1.1//EN" "http://www.w3.org/Graphics/SVG/1.1/DTD/svg11.dtd">
<svg version="1.1" id="图层_1" xmlns="http://www.w3.org/2000/svg" xmlns:xlink="http://www.w3.org/1999/xlink" x="0px" y="0px"
	 width="96px" height="96px" viewBox="0 0 96 96" enable-background="new 0 0 96 96" xml:space="preserve">
<g id="DO_NOT_EDIT_-_BOUNDING_BOX">
	<rect id="BOUNDING_BOX" fill="none" width="96" height="96"/>
</g>
<g id="DO_NOT_EDIT_-_SHADOW">
	<path id="SHADOW" fill-opacity="0.4" d="M88,49c0,29.633-10.364,40-40,40C18.365,89,8,78.633,8,49C8,19.366,18.366,9,48,9
		C77.636,9,88,19.365,88,49z"/>
</g>
<linearGradient id="GRAY_1_2_" gradientUnits="userSpaceOnUse" x1="89.66" y1="-155.95" x2="89.66" y2="-75.97" gradientTransform="matrix(1 0 0 -1 -41.66 -67.96)">
	<stop  offset="0" style="stop-color:#552291"/>
	<stop  offset="0.5" style="stop-color:#803BB9"/>
	<stop  offset="1" style="stop-color:#A050E6"/>
</linearGradient>
<path id="GRAY_1_1_" fill="url(#GRAY_1_2_)" d="M8,47.99c0,29.633,10.365,40,40,40c29.637,0,40-10.367,40-40
	c0-28.986-9.926-39.53-38.091-39.98h-3.817C17.928,8.46,8,19.005,8,47.99z"/>
<linearGradient id="SVGID_1_" gradientUnits="userSpaceOnUse" x1="410.62" y1="915.62" x2="410.62" y2="835.62" gradientTransform="matrix(1 0 0 1 -362.62 -827.62)">
	<stop  offset="0" style="stop-color:#000000;stop-opacity:0.2"/>
	<stop  offset="0.0529" style="stop-color:#1E1E1E;stop-opacity:0.2106"/>
	<stop  offset="0.1548" style="stop-color:#525252;stop-opacity:0.231"/>
	<stop  offset="0.2612" style="stop-color:#818181;stop-opacity:0.2522"/>
	<stop  offset="0.3698" style="stop-color:#A7A7A7;stop-opacity:0.274"/>
	<stop  offset="0.4812" style="stop-color:#C7C7C7;stop-opacity:0.2962"/>
	<stop  offset="0.5964" style="stop-color:#E0E0E0;stop-opacity:0.3193"/>
	<stop  offset="0.7169" style="stop-color:#F1F1F1;stop-opacity:0.3434"/>
	<stop  offset="0.8463" style="stop-color:#FCFCFC;stop-opacity:0.3693"/>
	<stop  offset="1" style="stop-color:#FFFFFF;stop-opacity:0.4"/>
</linearGradient>
<path opacity="0.3" fill="url(#SVGID_1_)" enable-background="new    " d="M48,8C18.365,8,8,18.365,8,48c0,29.633,10.365,40,40,40
	c29.637,0,40-10.367,40-40C88,18.365,77.637,8,48,8z M48,87.023C18.842,87.023,9,77.176,9,48S18.842,8.977,48,8.977S87,18.824,87,48
	S77.158,87.023,48,87.023z"/>
<g id="图层_2">
</g>
<rect fill="none" width="96" height="96"/>
<g>
	<path fill="none" d="M66.853,75.481c-4.968,0-9.45-3.022-11.325-7.576c-0.159,0.05-0.325,0.08-0.493,0.088
		c-1.443,0.079-2.891,0.137-4.334,0.171c0,0-0.927,0.021-1.375,0.027c-0.073,0.015-0.156,0.021-0.248,0.021h-2.144
		c-0.115,0-0.232-0.011-0.348-0.031l-0.077,0.001c-0.387,0-1.202-0.017-1.202-0.017c-6.034-0.148-10.932-0.573-15.415-1.338
		c-2.62-0.448-7.004-1.198-7.768-5.756c-1.274-6.601-2.308-16.494,0.018-26.076c0.744-4.483,5.23-5.212,7.911-5.647l0.271-0.044
		c4.793-0.785,9.988-1.195,16.345-1.291c0.104-0.021,0.2-0.021,0.255-0.021h2.145c0.136,0,0.27,0.014,0.398,0.04
		c6.203,0.074,11.386,0.481,16.213,1.271l0.271,0.044c2.68,0.436,7.163,1.165,7.938,5.788c1.266,5.19,1.641,11.15,1.106,17.681
		c-0.027,0.352-0.149,0.688-0.346,0.973c2.799,2.322,4.454,5.81,4.454,9.438C79.103,69.984,73.607,75.481,66.853,75.481z
		 M69.311,63.063c0.95,0.145,1.728,0.487,2.313,1.008c-0.134-0.236-0.239-0.492-0.299-0.769c-0.346-0.019-0.689-0.091-1.004-0.214
		c-0.104-0.042-0.332-0.085-0.664-0.085c-0.121,0-0.234,0.005-0.337,0.013C69.316,63.032,69.313,63.048,69.311,63.063z
		 M42.679,54.244l9.891-5.999l-9.854-6.25L42.679,54.244z"/>
	<path opacity="0.07" enable-background="new    " d="M66.853,74.981c-5.008,0-9.391-3.135-11.054-7.761
		c-0.229,0.162-0.502,0.259-0.79,0.273c-1.44,0.078-2.882,0.136-4.32,0.17c0,0-0.978,0.022-1.407,0.028
		c-0.001,0.01-0.103,0.021-0.204,0.021h-2.144c-0.101,0-0.203-0.011-0.302-0.031c-0.032,0.001-0.074,0.001-0.123,0.001
		c-0.383,0-1.191-0.017-1.191-0.017c-6.007-0.147-10.881-0.57-15.341-1.331c-2.65-0.453-6.653-1.138-7.359-5.346
		c-1.266-6.557-2.294-16.379,0.01-25.875c0.692-4.165,4.792-4.831,7.505-5.271l0.271-0.044c4.781-0.783,9.966-1.191,16.318-1.285
		c0.001-0.009,0.101-0.02,0.201-0.02h2.145c0.101,0,0.2,0.01,0.297,0.03c6.262,0.083,11.449,0.492,16.233,1.275l0.271,0.044
		c2.712,0.441,6.811,1.107,7.525,5.377c1.258,5.163,1.631,11.082,1.102,17.557c-0.034,0.429-0.247,0.813-0.583,1.069
		c2.919,2.206,4.689,5.699,4.689,9.382C78.603,69.709,73.331,74.981,66.853,74.981z M60.93,65.135
		c0.015,0.414,0.031,0.686,0.059,0.76l0.181,0.095c0.661,0.446,0.931,1.493,1.038,2.375c0.098-0.092,0.189-0.168,0.268-0.232
		c0.013-0.01,0.023-0.02,0.033-0.027c-0.008-0.412,0.059-0.782,0.196-1.118c-1.067-0.573-1.439-1.288-1.674-1.736
		c-0.019-0.036-0.036-0.07-0.052-0.102C60.962,65.144,60.945,65.139,60.93,65.135z M68.76,63.471
		c0.053,0.019,0.145,0.044,0.293,0.063c2.026,0.245,3.174,1.395,3.317,3.324l0.009,0.121c0.028,0.261,0.039,0.521,0.039,0.77
		c0.049-0.139,0.08-0.268,0.08-0.362c-0.036-0.585,0.006-1.654,0.639-2.351c-0.685-0.58-1.359-1.29-1.37-2.243
		c-0.091,0.01-0.183,0.015-0.275,0.015c-0.34,0-0.682-0.063-0.989-0.184c-0.191-0.076-0.498-0.119-0.846-0.119
		c-0.313,0-0.585,0.031-0.757,0.06c-0.025,0.115-0.058,0.28-0.096,0.493C68.765,63.28,68.758,63.403,68.76,63.471z M73.787,60.766
		c0.117,0.002,0.231,0.016,0.343,0.039c-0.275-0.826-0.696-1.607-1.242-2.303c-0.053,0.115-0.119,0.224-0.197,0.325
		C73.284,59.141,73.884,59.708,73.787,60.766z M59.819,60.193c0.186,0.022,0.36,0.068,0.526,0.139
		c0.015-0.016,0.031-0.032,0.047-0.048c0.053-0.053,0.056-0.056,0.105-0.293c0.096-0.466,0.254-0.978,0.656-1.444
		c-0.079-0.056-0.152-0.117-0.22-0.184C60.48,58.918,60.104,59.536,59.819,60.193z M42.176,55.134l11.342-6.879l-11.3-7.167
		L42.176,55.134z"/>
	<path opacity="0.1" enable-background="new    " d="M66.853,74.481c-5.278,0-9.72-3.655-10.927-8.568
		c0.021,0.244-0.048,0.487-0.197,0.686c-0.178,0.236-0.45,0.381-0.746,0.396c-1.436,0.077-2.872,0.135-4.306,0.169
		c0,0-0.974,0.022-1.402,0.028c-0.064,0.014-0.131,0.021-0.197,0.021h-2.144c-0.067,0-0.134-0.007-0.2-0.021
		c-0.382-0.005-1.406-0.026-1.406-0.026c-5.982-0.146-10.833-0.567-15.267-1.324c-2.662-0.455-6.303-1.077-6.95-4.936
		c-1.257-6.513-2.28-16.266,0.003-25.675c0.641-3.846,4.374-4.453,7.1-4.896l0.271-0.044c4.754-0.778,9.918-1.185,16.245-1.279
		c0.063-0.013,0.128-0.02,0.193-0.02h2.145c0.066,0,0.132,0.006,0.196,0.02c6.327,0.093,11.493,0.5,16.253,1.279l0.271,0.044
		c2.726,0.443,6.458,1.049,7.113,4.966c1.25,5.137,1.621,11.015,1.097,17.434c-0.027,0.344-0.228,0.646-0.534,0.805
		c-0.142,0.074-0.302,0.113-0.462,0.113c-0.126,0-0.251-0.024-0.368-0.07c3.273,1.969,5.469,5.556,5.469,9.645
		C78.103,69.433,73.056,74.481,66.853,74.481z M61.942,69.723c0.001-0.005,0.003-0.01,0.004-0.015
		c0.173-0.635,0.579-0.97,0.848-1.191c0.226-0.187,0.226-0.187,0.216-0.366c-0.036-0.659,0.18-1.098,0.388-1.389
		c-0.014-0.007-0.028-0.013-0.042-0.019c-1.257-0.525-1.633-1.247-1.882-1.725c-0.063-0.12-0.121-0.233-0.171-0.287
		c-0.023-0.008-0.356-0.152-0.752-0.152c-0.056,0-0.102,0.003-0.141,0.008l0.002,0.046c0.048,1.481,0.048,1.481,0.319,1.664
		l0.157,0.106c0.772,0.521,0.895,2.371,0.887,3.19C61.831,69.638,61.886,69.681,61.942,69.723z M69.656,62.004
		c-0.488,0-0.895,0.069-1.041,0.105c-0.08,0.02-0.102,0.033-0.103,0.033c-0.068,0.08-0.159,0.591-0.203,0.836
		c-0.029,0.169-0.109,0.621,0.028,0.805c0.041,0.056,0.187,0.189,0.654,0.246c1.786,0.216,2.754,1.18,2.879,2.865l0.009,0.12
		c0.066,0.6,0.031,1.186,0.002,1.655c-0.014,0.226-0.03,0.52-0.024,0.738c0.163-0.132,0.38-0.339,0.559-0.574
		c0.196-0.261,0.582-0.978,0.582-1.448c-0.034-0.561,0.006-1.631,0.665-2.162c0.07-0.057,0.148-0.139,0.219-0.224
		c-0.025-0.021-0.051-0.041-0.074-0.06c-0.694-0.56-1.556-1.254-1.541-2.194c0.005-0.24,0.067-0.47,0.182-0.678
		c-0.273,0.153-0.6,0.238-0.957,0.238c-0.278,0-0.558-0.052-0.808-0.149C70.434,62.058,70.07,62.004,69.656,62.004z M73.739,61.265
		c0.526,0,0.889,0.28,1.163,0.594c-0.282-1.74-1.167-3.385-2.505-4.625c0.096,0.182,0.146,0.387,0.142,0.604
		c-0.01,0.45-0.292,0.927-0.88,1.135c0.75,0.208,1.858,0.586,1.599,1.967c-0.032,0.18-0.093,0.348-0.176,0.499
		C73.288,61.324,73.512,61.265,73.739,61.265z M59.652,60.681c0.341,0.015,0.601,0.139,0.795,0.281
		c0.081-0.096,0.178-0.203,0.299-0.324c0.161-0.161,0.187-0.281,0.241-0.545c0.144-0.697,0.401-1.241,1.088-1.683
		c-0.141-0.036-0.27-0.075-0.399-0.135c-0.333-0.156-0.573-0.415-0.69-0.72c-0.854,0.883-1.503,1.958-1.886,3.128
		c0.182-0.003,0.348-0.005,0.418-0.005C59.521,60.679,59.652,60.681,59.652,60.681z M41.771,40.237c-0.024,0-0.044,0.006-0.05,0.009
		l-0.047,15.646l0.095,0.073l12.598-7.64c-0.002-0.001,0.011-0.115,0.009-0.116l-12.544-7.96L41.771,40.237z"/>
	<path opacity="0.15" enable-background="new    " d="M66.853,73.981c-5.928,0-10.75-4.824-10.75-10.754
		c0-5.926,4.822-10.746,10.75-10.746s10.75,4.82,10.75,10.746C77.603,69.157,72.78,73.981,66.853,73.981z M61.269,69.823
		c0.299,0.254,0.614,0.486,0.942,0.696c0.068-0.186,0.146-0.416,0.218-0.68c0.132-0.484,0.44-0.737,0.688-0.941
		c0.276-0.229,0.416-0.343,0.393-0.775c-0.038-0.699,0.273-1.062,0.48-1.301c0.049-0.057,0.094-0.108,0.128-0.158
		c-0.086-0.104-0.318-0.278-0.57-0.383c-1.088-0.455-1.401-1.056-1.63-1.494c-0.082-0.157-0.153-0.293-0.247-0.395
		c-0.098-0.106-0.581-0.313-1.119-0.313c-0.271,0-0.489,0.058-0.583,0.153c-0.018,0.02-0.066,0.069-0.062,0.218l0.006,0.197
		c0.057,1.739,0.057,1.739,0.541,2.064l0.156,0.105C61.143,67.178,61.324,68.938,61.269,69.823z M69.656,61.504
		c-0.532,0-0.981,0.075-1.162,0.12c-0.434,0.105-0.505,0.303-0.677,1.267c-0.072,0.412-0.115,0.877,0.119,1.191
		c0.175,0.235,0.51,0.385,0.996,0.443c2.283,0.276,2.396,1.824,2.439,2.406l0.01,0.123c0.063,0.566,0.03,1.107,0.001,1.585
		c-0.034,0.577-0.067,1.122,0.112,1.338c0.067,0.081,0.11,0.081,0.139,0.081c0.288,0,0.843-0.478,1.181-0.923
		c0.223-0.296,0.684-1.115,0.684-1.75c-0.022-0.378-0.023-1.368,0.479-1.772c0.216-0.174,0.481-0.512,0.568-0.706
		c-0.104-0.098-0.283-0.243-0.424-0.356c-0.64-0.516-1.365-1.1-1.354-1.797c0.004-0.217,0.082-0.531,0.437-0.8
		c0.167-0.126,0.348-0.189,0.536-0.189c0.504,0,0.809,0.427,1.078,0.803c0.101,0.141,0.269,0.377,0.35,0.417
		c0.122-0.004,0.288-0.212,0.318-0.297c-0.008-0.003-0.019-0.122-0.028-0.261l-0.024-0.388c-0.26-1.96-1.225-3.817-2.714-5.189
		c0,0-0.21-0.183-0.34-0.293c-0.082-0.008-0.24-0.019-0.529-0.019c-0.286,0-0.58,0.01-0.751,0.016
		c-0.451,0.012-0.579,0.116-0.596,0.151c0.011,0.109,0.014,0.234,0.538,0.26c0.58,0.027,1.01,0.397,0.998,0.86
		c-0.008,0.349-0.291,0.756-1.061,0.756c-0.014,0-0.101-0.003-0.115-0.004c-0.041-0.004-0.173-0.015-0.33-0.015
		c-0.339,0-0.442,0.052-0.443,0.052c-1.013,0.742-1.266,1.041-1.327,1.135c-0.001,0.017-0.001,0.033-0.001,0.049
		c0.164-0.038,0.354-0.113,0.551-0.191c0.388-0.154,0.826-0.328,1.312-0.328c0.176,0,0.348,0.023,0.512,0.069l0.27,0.074
		c0.762,0.207,1.55,0.422,1.361,1.425c-0.105,0.582-0.606,0.96-1.275,0.96c-0.217,0-0.434-0.04-0.626-0.115
		C70.556,61.568,70.138,61.504,69.656,61.504z M59.645,61.181c0.411,0.018,0.651,0.299,0.795,0.467
		c0.015,0.018,0.034,0.041,0.053,0.061c0.026-0.021,0.057-0.061,0.127-0.155c0.104-0.14,0.24-0.321,0.48-0.562
		c0.267-0.267,0.315-0.501,0.377-0.797c0.154-0.745,0.407-1.361,2.003-1.857c-0.094-0.054-0.218-0.112-0.378-0.167
		c-0.297-0.102-0.535-0.157-0.722-0.201c-0.197-0.046-0.353-0.082-0.494-0.147c-0.363-0.17-0.544-0.514-0.463-0.876
		c0.108-0.487,0.71-0.931,1.262-0.931c0.189,0,0.368,0.052,0.516,0.15c0.15,0.1,0.189,0.1,0.215,0.1
		c0.061,0,0.164-0.026,0.309-0.079c0.256-0.103,1.098-0.877,1.551-1.412c-0.319,0.044-0.687,0.127-0.915,0.178
		c-1.3,0.296-2.904,1.505-2.921,1.518c-1.497,1.197-2.559,2.869-3.002,4.725c0.059-0.001,0.897-0.015,1.081-0.015L59.645,61.181z
		 M46.933,66.713c-0.047,0-0.094-0.007-0.138-0.02c-0.323-0.004-1.458-0.027-1.458-0.027c-5.952-0.146-10.779-0.563-15.193-1.317
		c-2.652-0.453-5.952-1.016-6.541-4.525c-1.249-6.47-2.266-16.152-0.004-25.474c0.589-3.527,3.974-4.078,6.694-4.52l0.272-0.044
		c4.743-0.777,9.902-1.182,16.228-1.273c0.042-0.012,0.085-0.019,0.13-0.019h2.145c0.047,0,0.092,0.006,0.136,0.019
		c6.327,0.091,11.488,0.497,16.232,1.273l0.272,0.044c2.72,0.442,6.104,0.992,6.7,4.555c1.242,5.112,1.611,10.948,1.092,17.31
		c-0.014,0.171-0.114,0.323-0.267,0.402c-0.073,0.038-0.152,0.057-0.231,0.057c-0.087,0-0.174-0.022-0.252-0.068
		c-1.799-1.049-3.838-1.604-5.897-1.604c-6.479,0-11.75,5.27-11.75,11.746c0,0.865,0.105,1.759,0.314,2.656
		c0.033,0.145,0.001,0.296-0.088,0.414s-0.226,0.19-0.373,0.198c-1.431,0.076-2.862,0.134-4.291,0.168c0,0-1.065,0.024-1.455,0.029
		c-0.042,0.013-0.087,0.02-0.133,0.02H46.933z M41.771,39.737c-0.102,0-0.204,0.024-0.286,0.068
		c-0.191,0.104-0.312,0.298-0.312,0.504v15.583c0,0.206,0.116,0.397,0.304,0.499c0.089,0.049,0.189,0.074,0.291,0.074
		c0.115,0,0.229-0.031,0.327-0.09l12.53-7.623c0.171-0.104,0.277-0.288,0.278-0.48c0.004-0.201-0.096-0.383-0.262-0.485
		l-12.544-7.96C42.005,39.77,41.889,39.737,41.771,39.737z"/>
	<path fill-opacity="0.15" d="M54.603,63.228c0-6.753,5.495-12.246,12.25-12.246c2.243,0,4.34,0.616,6.15,1.672
		c0.472-5.775,0.247-11.685-1.087-17.186c-0.555-3.318-3.801-3.736-6.561-4.188c-5.371-0.88-10.84-1.194-16.277-1.269v-0.017
		c-0.004,0-0.007,0-0.01,0c-0.356,0-0.711-0.002-1.067,0c-0.356-0.002-0.711,0-1.067,0c-0.003,0-0.006,0-0.01,0v0.017
		c-5.437,0.075-10.906,0.389-16.277,1.269c-2.76,0.452-6.006,0.87-6.561,4.188c-1.969,8.117-1.56,17.133,0.012,25.273
		c0.529,3.158,3.475,3.662,6.131,4.115c4.986,0.852,10.066,1.188,15.119,1.309v0.002c0.52,0.01,1.035,0.023,1.576,0.029v0.018
		c0.004,0,0.007,0,0.01,0c0.356,0,0.711,0,1.067,0s0.711,0,1.067,0c0.003,0,0.006,0,0.01,0v-0.018
		c0.541-0.006,1.056-0.019,1.576-0.029v-0.002c1.424-0.034,2.851-0.092,4.277-0.167C54.723,65.105,54.603,64.181,54.603,63.228z
		 M42.351,56.806c-0.338,0.201-0.766,0.215-1.111,0.025c-0.35-0.189-0.566-0.553-0.566-0.938V40.309
		c0-0.392,0.221-0.752,0.574-0.944c0.162-0.087,0.346-0.128,0.523-0.128c0.209,0,0.416,0.058,0.596,0.168l12.539,7.957
		c0.316,0.195,0.506,0.541,0.498,0.912c-0.001,0.371-0.2,0.712-0.518,0.906L42.351,56.806z M66.853,52.981
		c-5.66,0-10.25,4.59-10.25,10.247c0,5.664,4.59,10.253,10.25,10.253c5.663,0,10.25-4.589,10.25-10.253
		C77.103,57.571,72.516,52.981,66.853,52.981z M64.607,66.818c-0.199,0.399-0.639,0.548-0.599,1.278
		c0.063,1.172-0.879,1.078-1.097,1.877c-0.211,0.767-0.459,1.27-0.459,1.27c-0.617-0.339-1.191-0.748-1.709-1.215
		c0.14-0.748-0.111-2.592-0.416-2.798c-0.876-0.598-0.845-0.425-0.921-2.764c-0.042-1.298,2.157-0.929,2.632-0.412
		c0.454,0.494,0.378,1.213,1.7,1.766C64.113,65.975,64.808,66.419,64.607,66.818z M63.895,56.655
		c-0.467,0.17-0.65,0.139-0.971-0.074c-0.452-0.301-1.434,0.502-0.827,0.786c0.207,0.095,0.579,0.128,1.169,0.33
		c0.941,0.325,1.213,0.882,0.669,1.029c-2.721,0.738-1.448,1.586-2.48,2.619c-0.53,0.53-0.494,0.742-0.869,0.869
		c-0.459,0.152-0.533-0.516-0.966-0.535c-0.154-0.008-1.42,0.021-1.74,0.021c-0.045,0,0.009-0.341,0.009-0.341
		c0.435-2.126,1.613-3.983,3.248-5.29c0,0,1.692-1.283,3.114-1.606c0.628-0.142,1.879-0.42,1.795,0.013
		C65.955,54.944,64.365,56.489,63.895,56.655z M75.054,63.47c-0.568-0.103-0.939-1.578-1.549-1.116
		c-1.021,0.77,1.569,2.054,1.569,2.459c0,0.405-0.548,1-0.784,1.191c-0.356,0.286-0.293,1.383-0.293,1.383
		c0,0.773-0.519,1.697-0.785,2.052c-0.268,0.354-1.426,1.675-2.102,0.859c-0.504-0.607-0.079-1.854-0.226-3.188
		c-0.052-0.479,0.039-1.84-2.011-2.088c-1.824-0.218-1.666-1.546-1.548-2.219c0.165-0.926,0.266-1.475,1.049-1.664
		c0.439-0.108,1.756-0.278,2.674,0.088c0.433,0.17,1.124,0.1,1.228-0.472c0.114-0.609-0.291-0.65-1.275-0.926
		c-0.884-0.249-1.72,0.498-2.438,0.496c-0.322,0-0.307-0.271-0.299-0.651c0.003-0.378,1.391-1.355,1.537-1.466
		c0.281-0.215,1.104-0.128,1.121-0.128c0.907,0.028,0.708-0.587,0.095-0.616c-1.075-0.052-0.995-0.616-1.007-0.785
		c-0.014-0.171,0.157-0.601,0.982-0.622c0.268-0.008,1.318-0.05,1.603,0.031c0.071,0.054,0.462,0.394,0.462,0.394
		c1.538,1.417,2.589,3.354,2.874,5.533c0.016,0.328,0.054,0.674,0.042,0.779C75.946,62.982,75.568,63.565,75.054,63.47z"/>
	<linearGradient id="SVGID_2_" gradientUnits="userSpaceOnUse" x1="49.9306" y1="71.481" x2="49.9306" y2="27.9923">
		<stop  offset="0" style="stop-color:#D0CBC5"/>
		<stop  offset="0.5031" style="stop-color:#FAFCEF"/>
		<stop  offset="0.9693" style="stop-color:#FFFFFF"/>
		<stop  offset="1" style="stop-color:#FFFFFF"/>
	</linearGradient>
	<path fill="url(#SVGID_2_)" d="M54.603,61.228c0-6.753,5.495-12.246,12.25-12.246c2.243,0,4.34,0.616,6.15,1.672
		c0.472-5.775,0.247-11.685-1.087-17.186c-0.555-3.318-3.801-3.736-6.561-4.188c-5.371-0.88-10.84-1.194-16.277-1.269v-0.017
		c-0.004,0-0.007,0-0.01,0c-0.356,0-0.711-0.002-1.067,0c-0.356-0.002-0.711,0-1.067,0c-0.003,0-0.006,0-0.01,0v0.017
		c-5.437,0.075-10.906,0.389-16.277,1.269c-2.76,0.452-6.006,0.87-6.561,4.188c-1.969,8.117-1.56,17.133,0.012,25.273
		c0.529,3.158,3.475,3.662,6.131,4.115c4.986,0.852,10.066,1.188,15.119,1.309v0.002c0.52,0.01,1.035,0.023,1.576,0.029v0.018
		c0.004,0,0.007,0,0.01,0c0.356,0,0.711,0,1.067,0s0.711,0,1.067,0c0.003,0,0.006,0,0.01,0v-0.018
		c0.541-0.006,1.056-0.019,1.576-0.029v-0.002c1.424-0.034,2.851-0.092,4.277-0.167C54.723,63.105,54.603,62.181,54.603,61.228z
		 M42.351,54.806c-0.338,0.201-0.766,0.215-1.111,0.025c-0.35-0.189-0.566-0.553-0.566-0.938V38.309
		c0-0.392,0.221-0.752,0.574-0.944c0.162-0.087,0.346-0.128,0.523-0.128c0.209,0,0.416,0.058,0.596,0.168l12.539,7.957
		c0.316,0.195,0.506,0.541,0.498,0.912c-0.001,0.371-0.2,0.712-0.518,0.906L42.351,54.806z M66.853,50.981
		c-5.66,0-10.25,4.59-10.25,10.247c0,5.664,4.59,10.253,10.25,10.253c5.663,0,10.25-4.589,10.25-10.253
		C77.103,55.571,72.516,50.981,66.853,50.981z M64.607,64.818c-0.199,0.399-0.639,0.548-0.599,1.278
		c0.063,1.172-0.879,1.078-1.097,1.877c-0.211,0.767-0.459,1.27-0.459,1.27c-0.617-0.339-1.191-0.748-1.709-1.215
		c0.14-0.748-0.111-2.592-0.416-2.798c-0.876-0.598-0.845-0.425-0.921-2.764c-0.042-1.298,2.157-0.929,2.632-0.412
		c0.454,0.494,0.378,1.213,1.7,1.766C64.113,63.975,64.808,64.419,64.607,64.818z M63.895,54.655
		c-0.467,0.17-0.65,0.139-0.971-0.074c-0.452-0.301-1.434,0.502-0.827,0.786c0.207,0.095,0.579,0.128,1.169,0.33
		c0.941,0.325,1.213,0.882,0.669,1.029c-2.721,0.738-1.448,1.586-2.48,2.619c-0.53,0.53-0.494,0.742-0.869,0.869
		c-0.459,0.152-0.533-0.516-0.966-0.535c-0.154-0.008-1.42,0.021-1.74,0.021c-0.045,0,0.009-0.341,0.009-0.341
		c0.435-2.126,1.613-3.983,3.248-5.29c0,0,1.692-1.283,3.114-1.606c0.628-0.142,1.879-0.42,1.795,0.013
		C65.955,52.944,64.365,54.489,63.895,54.655z M75.054,61.47c-0.568-0.103-0.939-1.578-1.549-1.116
		c-1.021,0.77,1.569,2.054,1.569,2.459s-0.548,1-0.784,1.191c-0.356,0.286-0.293,1.383-0.293,1.383c0,0.773-0.519,1.697-0.785,2.052
		c-0.268,0.354-1.426,1.675-2.102,0.859c-0.504-0.607-0.079-1.854-0.226-3.188c-0.052-0.479,0.039-1.84-2.011-2.088
		c-1.824-0.218-1.666-1.546-1.548-2.219c0.165-0.926,0.266-1.475,1.049-1.664c0.439-0.108,1.756-0.278,2.674,0.088
		c0.433,0.17,1.124,0.1,1.228-0.472c0.114-0.609-0.291-0.65-1.275-0.926c-0.884-0.249-1.72,0.498-2.438,0.496
		c-0.322,0-0.307-0.271-0.299-0.651c0.003-0.378,1.391-1.355,1.537-1.466c0.281-0.215,1.104-0.128,1.121-0.128
		c0.907,0.028,0.708-0.587,0.095-0.616c-1.075-0.052-0.995-0.616-1.007-0.785c-0.014-0.171,0.157-0.601,0.982-0.622
		c0.268-0.008,1.318-0.05,1.603,0.031c0.071,0.054,0.462,0.394,0.462,0.394c1.538,1.417,2.589,3.354,2.874,5.533
		c0.016,0.328,0.054,0.674,0.042,0.779C75.946,60.982,75.568,61.565,75.054,61.47z"/>
	<g>
		<path fill-opacity="0.05" d="M54.603,61.228c0,0.954,0.12,1.878,0.327,2.769c-1.426,0.075-2.852,0.133-4.277,0.167v0.002
			c-0.52,0.01-1.035,0.023-1.576,0.029v0.018c-0.004,0-0.007,0-0.01,0c-0.356,0-0.711,0-1.067,0s-0.711,0-1.067,0
			c-0.003,0-0.006,0-0.01,0v-0.018c-0.541-0.006-1.056-0.019-1.576-0.029v-0.002c-5.053-0.121-10.133-0.457-15.119-1.309
			c-2.656-0.453-5.602-0.957-6.131-4.115c-0.963-4.987-1.482-10.303-1.293-15.54c0.117,3.916,0.574,7.82,1.293,11.54
			c0.529,3.158,3.475,3.662,6.131,4.115c4.986,0.852,10.066,1.188,15.119,1.309v0.002c0.52,0.01,1.035,0.023,1.576,0.029v0.018
			c0.004,0,0.007,0,0.01,0c0.356,0,0.711,0,1.067,0s0.711,0,1.067,0c0.003,0,0.006,0,0.01,0v-0.018
			c0.541-0.006,1.056-0.019,1.576-0.029v-0.002c1.336-0.032,2.674-0.088,4.011-0.157C54.624,60.409,54.603,60.816,54.603,61.228z"/>
		<path fill-opacity="0.05" d="M58.737,54.987c-0.386,0.738-0.677,1.533-0.849,2.373c0,0-0.054,0.341-0.009,0.341
			c0.102,0,0.302-0.003,0.528-0.007c0.596-1.426,1.539-2.672,2.73-3.624c0,0,0.423-0.32,1.023-0.681
			c-0.02-0.007-0.046-0.013-0.064-0.022c-0.607-0.284,0.375-1.087,0.827-0.786c0.172,0.114,0.306,0.171,0.463,0.178
			c0.267-0.113,0.535-0.211,0.798-0.276c0.431-0.304,1.09-0.93,1.501-1.432C62.859,51.374,60.387,52.846,58.737,54.987z"/>
		<path fill-opacity="0.05" d="M62.923,54.581c-0.452-0.301-1.434,0.502-0.827,0.786c0.068,0.031,0.161,0.057,0.267,0.083
			c0.263-0.254,0.722-0.494,1.57-0.724c0.178-0.048,0.26-0.142,0.269-0.255c-0.122,0.087-0.232,0.158-0.307,0.185
			C63.428,54.825,63.245,54.794,62.923,54.581z"/>
		<path fill-opacity="0.05" d="M71.38,52.045c-0.168,0.004-0.312,0.009-0.388,0.011c-0.826,0.021-0.997,0.451-0.982,0.622
			c0.012,0.169-0.068,0.733,1.007,0.785c0.519,0.025,0.733,0.466,0.237,0.584c0.417-0.012,1.116-0.025,1.341,0.039
			c0.071,0.054,0.462,0.394,0.462,0.394c1.332,1.227,2.295,2.844,2.716,4.67c0.115-0.137,0.189-0.281,0.2-0.358
			c0.012-0.105-0.026-0.451-0.042-0.779c-0.14-1.072-0.467-2.084-0.945-3.005C74.032,53.764,72.801,52.747,71.38,52.045z"/>
		<path fill-opacity="0.05" d="M70.821,54.073c-0.227-0.016-0.795-0.038-1.021,0.135c-0.146,0.11-1.534,1.087-1.537,1.466
			c-0.008,0.38-0.023,0.651,0.299,0.651c0.717,0.002,1.554-0.745,2.438-0.496c0.177,0.05,0.315,0.087,0.455,0.126
			c0.201-0.174-0.014-0.471-0.438-0.491c-1.075-0.052-0.995-0.616-1.007-0.785C69.997,54.521,70.149,54.146,70.821,54.073z"/>
		<path fill-opacity="0.05" d="M63.738,61.82c-1.321-0.553-1.246-1.272-1.7-1.766c-0.153-0.166-0.489-0.31-0.867-0.395
			c-0.248,0.305-0.299,0.458-0.587,0.555c-0.378,0.125-0.497-0.301-0.768-0.467c-0.25,0.136-0.421,0.358-0.41,0.719
			c0.025,0.773,0.039,1.268,0.077,1.611c0.382-0.815,2.136-0.478,2.555-0.023c0.454,0.494,0.378,1.213,1.7,1.766
			c0.083,0.034,0.183,0.085,0.284,0.144c0.024-0.602,0.401-0.776,0.585-1.146C64.808,62.419,64.113,61.975,63.738,61.82z"/>
		<path fill-opacity="0.05" d="M74.27,62.028c0.007-0.007,0.012-0.019,0.02-0.025c0.138-0.112,0.375-0.365,0.555-0.635
			c-0.458-0.349-0.808-1.418-1.34-1.015C72.879,60.826,73.611,61.491,74.27,62.028z"/>
		<path fill-opacity="0.05" d="M73.451,67.07c-0.087,0.151-0.171,0.278-0.238,0.368c-0.244,0.322-1.22,1.426-1.904,1.013
			c-1.349,0.653-2.857,1.03-4.456,1.03c-1.475,0-2.874-0.318-4.142-0.879c-0.141,0.394-0.259,0.641-0.259,0.641
			c-0.617-0.339-1.191-0.748-1.709-1.215c0.028-0.147,0.036-0.344,0.036-0.555c-2.276-1.681-3.838-4.273-4.126-7.245
			c-0.032,0.329-0.05,0.662-0.05,0.999c0,5.664,4.59,10.253,10.25,10.253c5.663,0,10.25-4.589,10.25-10.253
			c0-0.337-0.019-0.67-0.05-0.999C76.787,62.969,75.443,65.391,73.451,67.07z"/>
		<path fill-opacity="0.05" d="M70.913,65.848c0.003-0.241-0.001-0.487-0.029-0.739c-0.006-0.057-0.01-0.128-0.016-0.207
			C70.85,65.261,70.853,65.579,70.913,65.848z"/>
		<path fill-opacity="0.05" d="M72.275,58.754c0.114-0.609-0.291-0.65-1.275-0.926c-0.884-0.249-1.72,0.497-2.438,0.496
			c-0.322,0-0.307-0.271-0.299-0.651c0.001-0.141,0.195-0.366,0.445-0.597c-0.134,0.021-0.253,0.042-0.335,0.062
			c-0.782,0.189-0.884,0.739-1.049,1.664c-0.065,0.37-0.13,0.933,0.117,1.406c0.135-0.571,0.335-0.926,0.932-1.07
			c0.439-0.108,1.756-0.278,2.674,0.088C71.48,59.395,72.172,59.326,72.275,58.754z"/>
	</g>
	<g>
		<path fill="#FFFFFF" d="M69.662,59.006c0.427-0.165,0.876-0.308,1.339-0.178c0.464,0.13,0.789,0.21,1.001,0.319
			c0.131-0.089,0.24-0.206,0.273-0.394c0.114-0.609-0.291-0.65-1.275-0.926c-0.884-0.249-1.72,0.497-2.438,0.496
			c-0.035,0-0.053-0.015-0.08-0.021c-0.131,0.145-0.218,0.276-0.218,0.37c-0.004,0.205-0.006,0.372,0.039,0.489
			c0.025-0.007,0.045-0.017,0.071-0.024C68.612,59.08,69.111,59.006,69.662,59.006z"/>
		<path fill="#FFFFFF" d="M62.911,68.973c0.218-0.799,1.16-0.706,1.097-1.877c-0.04-0.73,0.401-0.879,0.599-1.278
			c0.108-0.215-0.047-0.442-0.269-0.631c-0.181,0.211-0.357,0.437-0.331,0.909c0.063,1.172-0.879,1.078-1.097,1.877
			c-0.211,0.767-0.459,1.27-0.459,1.27c-0.609-0.335-1.175-0.739-1.688-1.198c0.025,0.38,0.024,0.74-0.021,0.983
			c0.519,0.467,1.092,0.876,1.709,1.215C62.453,70.243,62.7,69.74,62.911,68.973z"/>
		<path fill="#FFFFFF" d="M57.879,60.701c0.32,0,1.586-0.029,1.74-0.021c0.433,0.019,0.507,0.687,0.966,0.535
			c0.375-0.127,0.339-0.339,0.869-0.869c1.032-1.033-0.241-1.881,2.48-2.619c0.476-0.128,0.328-0.57-0.345-0.896
			c-2.254,0.714-1.15,1.531-2.134,2.516c-0.53,0.53-0.494,0.742-0.869,0.869c-0.459,0.152-0.533-0.516-0.966-0.535
			c-0.133-0.007-1.1,0.014-1.564,0.02c-0.062,0.218-0.121,0.437-0.166,0.661C57.888,60.36,57.834,60.701,57.879,60.701z"/>
		<path fill="#FFFFFF" d="M63.895,54.655c-0.467,0.17-0.65,0.139-0.971-0.074c-0.452-0.301-1.434,0.502-0.827,0.786
			c0.123,0.057,0.314,0.095,0.566,0.156c0.095-0.004,0.186,0.008,0.261,0.058c0.016,0.01,0.028,0.015,0.043,0.024
			c0.095,0.027,0.189,0.054,0.298,0.091c0.054,0.019,0.099,0.041,0.148,0.061c0.131,0.001,0.277-0.028,0.482-0.102
			c0.47-0.166,2.06-1.711,2.151-2.179c0.038-0.196-0.203-0.243-0.531-0.226C64.982,53.852,64.202,54.547,63.895,54.655z"/>
		<path fill="#FFFFFF" d="M56.603,61.228c0,0.169,0.017,0.333,0.025,0.5c0.263-5.423,4.734-9.747,10.225-9.747
			c5.494,0,9.962,4.324,10.225,9.747c0.008-0.167,0.025-0.331,0.025-0.5c0-5.656-4.587-10.247-10.25-10.247
			C61.193,50.981,56.603,55.571,56.603,61.228z"/>
		<path fill="#FFFFFF" d="M60.328,66.23c0.194,0.131,0.365,0.925,0.428,1.678c0.1-0.805-0.138-2.481-0.428-2.678
			c-0.751-0.512-0.835-0.463-0.892-1.911c-0.007,0.051-0.031,0.089-0.029,0.146C59.482,65.805,59.452,65.632,60.328,66.23z"/>
		<path fill="#FFFFFF" d="M75.973,61.794c0.012-0.105-0.026-0.451-0.042-0.779c-0.003-0.026-0.01-0.051-0.014-0.077
			c-0.123,0.242-0.447,0.609-0.863,0.531c-0.568-0.103-0.939-1.578-1.549-1.116c-0.375,0.283-0.261,0.635,0.031,0.987
			c0.591-0.388,0.96,1.028,1.518,1.129C75.568,62.565,75.946,61.982,75.973,61.794z"/>
		<path fill="#FFFFFF" d="M55.404,47.274c0.004-0.183-0.041-0.36-0.125-0.516c-0.09,0.17-0.222,0.318-0.393,0.422l-12.535,7.626
			c-0.338,0.201-0.766,0.215-1.111,0.025c-0.35-0.189-0.566-0.553-0.566-0.938v1c0,0.385,0.216,0.749,0.566,0.938
			c0.345,0.19,0.773,0.176,1.111-0.025l12.535-7.626C55.204,47.986,55.403,47.645,55.404,47.274z"/>
		<path fill="#FFFFFF" d="M24.085,34.467c0.555-3.318,3.801-3.736,6.561-4.188c5.371-0.88,10.84-1.194,16.277-1.269v-0.017
			c0.004,0,0.007,0,0.01,0c0.356,0,0.711-0.002,1.067,0c0.356-0.002,0.711,0,1.067,0c0.003,0,0.006,0,0.01,0v0.017
			c5.437,0.075,10.906,0.389,16.277,1.269c2.76,0.452,6.006,0.87,6.561,4.188c0.926,3.817,1.308,7.831,1.303,11.86
			c0.075-4.363-0.301-8.727-1.303-12.86c-0.555-3.318-3.801-3.736-6.561-4.188c-5.371-0.88-10.84-1.194-16.277-1.269v-0.017
			c-0.004,0-0.007,0-0.01,0c-0.356,0-0.711-0.002-1.067,0c-0.356-0.002-0.711,0-1.067,0c-0.003,0-0.006,0-0.01,0v0.017
			c-5.437,0.075-10.906,0.389-16.277,1.269c-2.76,0.452-6.006,0.87-6.561,4.188c-1.006,4.146-1.385,8.526-1.312,12.904
			C22.771,42.328,23.156,38.297,24.085,34.467z"/>
		<path fill="#FFFFFF" d="M54.603,62.228c0,0.606,0.063,1.195,0.151,1.776c0.059-0.003,0.117-0.004,0.176-0.007
			c-0.174-0.748-0.268-1.524-0.3-2.316C54.622,61.863,54.603,62.043,54.603,62.228z"/>
		<path fill="#FFFFFF" d="M70.921,56.08c0.907,0.028,0.708-0.587,0.095-0.616c-0.379-0.018-0.609-0.102-0.755-0.207
			c-0.202,0.142-0.26,0.324-0.252,0.422c0.006,0.081-0.007,0.253,0.095,0.416C70.454,56.032,70.909,56.08,70.921,56.08z"/>
		<path fill="#FFFFFF" d="M74.29,64.003c-0.356,0.286-0.293,1.383-0.293,1.383c0,0.773-0.519,1.697-0.785,2.052
			c-0.268,0.354-1.426,1.676-2.102,0.859c-0.134-0.161-0.2-0.37-0.231-0.612c-0.04,0.681-0.064,1.257,0.231,1.612
			c0.676,0.816,1.834-0.505,2.102-0.859c0.266-0.355,0.785-1.279,0.785-2.052c0,0-0.063-1.097,0.293-1.383
			c0.236-0.191,0.784-0.785,0.784-1.191c0-0.084-0.115-0.208-0.284-0.356C74.619,63.692,74.414,63.903,74.29,64.003z"/>
		<path fill="#FFFFFF" d="M68.873,64.022c2.05,0.248,1.959,1.609,2.011,2.088c0.008,0.075,0.009,0.149,0.014,0.223
			c0.021-0.388,0.033-0.8-0.014-1.223c-0.052-0.479,0.039-1.84-2.011-2.088c-1.055-0.126-1.438-0.625-1.558-1.152
			C67.2,62.558,67.103,63.81,68.873,64.022z"/>
	</g>
</g>
</svg>
