<?xml version="1.0"?>
<!-- Converted with SVG Converter - Version 0.9.5 (Compiled Mon May 30 09:08:51 2011) - Copyright (C) 2011 Nokia -->
<svg xmlns="http://www.w3.org/2000/svg" width="30px" x="0px" version="1.1" y="0px" height="30px" viewBox="0 0 30 30" baseProfile="tiny" xmlns:xlink="http://www.w3.org/1999/xlink" id="svg3889" xml:space="preserve">
 <metadata id="metadata3910"/>
 <defs id="defs3908"/>
 <g id="DO_NOT_EDIT_-_BOUNDING_BOX">
  <rect width="30" fill="none" height="30" id="BOUNDING_BOX"/>
 </g>
 <g id="PLACE_YOUR_GRAPHIC_HERE">
  <g id="g3894">
   <path stroke-opacity="0.3" fill-opacity="0.3" id="path3896" d="M18.654,14l8.043-8.042c0.404-0.403,0.404-1.06,0-1.462l-2.193-2.193c-0.404-0.404-1.059-0.404-1.461,0&#xd;&#xa;&#x9;&#x9;&#x9;L15,10.344L6.959,2.303c-0.404-0.404-1.059-0.404-1.463,0L3.303,4.496c-0.404,0.402-0.404,1.059,0,1.462L11.346,14l-8.043,8.041&#xd;&#xa;&#x9;&#x9;&#x9;c-0.404,0.404-0.404,1.059,0,1.463l2.193,2.193c0.404,0.404,1.059,0.404,1.463,0L15,17.654l8.043,8.043&#xd;&#xa;&#x9;&#x9;&#x9;c0.402,0.404,1.057,0.404,1.461,0l2.193-2.193c0.404-0.404,0.404-1.059,0-1.463L18.654,14z"/>
   <path stroke-opacity="0.15" fill-opacity="0.15" id="path3898" d="M23.772,28.001c-0.544,0-1.055-0.213-1.438-0.599L15,20.068l-7.334,7.336&#xd;&#xa;&#x9;&#x9;&#x9;c-0.384,0.385-0.895,0.597-1.438,0.597s-1.054-0.212-1.438-0.597l-2.193-2.193c-0.793-0.793-0.793-2.084,0-2.877L9.931,15&#xd;&#xa;&#x9;&#x9;&#x9;L2.596,7.665C2.211,7.282,1.999,6.77,2,6.226S2.212,5.17,2.597,4.787l2.192-2.191C5.173,2.211,5.684,2,6.228,2&#xd;&#xa;&#x9;&#x9;&#x9;s1.054,0.212,1.438,0.596L15,9.93l7.336-7.334C22.718,2.212,23.229,2,23.772,2c0.543,0,1.054,0.212,1.438,0.596l2.193,2.193&#xd;&#xa;&#x9;&#x9;&#x9;C27.788,5.17,28,5.681,28.001,6.226c0,0.544-0.212,1.056-0.598,1.44L20.068,15l7.336,7.334c0.793,0.793,0.793,2.084,0,2.877&#xd;&#xa;&#x9;&#x9;&#x9;l-2.193,2.193C24.826,27.789,24.315,28.001,23.772,28.001z"/>
   <path stroke-opacity="0.15" fill-opacity="0.15" id="path3900" d="M18.654,15l8.043-8.042c0.404-0.403,0.404-1.06,0-1.462l-2.193-2.193c-0.404-0.404-1.059-0.404-1.461,0&#xd;&#xa;&#x9;&#x9;&#x9;L15,11.344L6.959,3.303c-0.404-0.404-1.059-0.404-1.463,0L3.303,5.496c-0.404,0.402-0.404,1.059,0,1.462L11.346,15l-8.043,8.041&#xd;&#xa;&#x9;&#x9;&#x9;c-0.404,0.404-0.404,1.059,0,1.463l2.193,2.193c0.404,0.404,1.059,0.404,1.463,0L15,18.654l8.043,8.043&#xd;&#xa;&#x9;&#x9;&#x9;c0.402,0.404,1.057,0.404,1.461,0l2.193-2.193c0.404-0.404,0.404-1.059,0-1.463L18.654,15z"/>
   <path fill="#FFFFFF" id="path3902" d="M18.654,15l8.043-8.042c0.404-0.403,0.404-1.06,0-1.462l-2.193-2.193c-0.404-0.404-1.059-0.404-1.461,0&#xd;&#xa;&#x9;&#x9;&#x9;L15,11.344L6.959,3.303c-0.404-0.404-1.059-0.404-1.463,0L3.303,5.496c-0.404,0.402-0.404,1.059,0,1.462L11.346,15l-8.043,8.041&#xd;&#xa;&#x9;&#x9;&#x9;c-0.404,0.404-0.404,1.059,0,1.463l2.193,2.193c0.404,0.404,1.059,0.404,1.463,0L15,18.654l8.043,8.043&#xd;&#xa;&#x9;&#x9;&#x9;c0.402,0.404,1.057,0.404,1.461,0l2.193-2.193c0.404-0.404,0.404-1.059,0-1.463L18.654,15z"/>
   <rect width="30" fill="none" height="30" id="rect3904"/>
  </g>
 </g>
 <path style="opacity:0.92000002;fill:#282828;fill-opacity:1;fill-rule:evenodd;stroke:#141414;stroke-width:0.01614407;stroke-miterlimit:4;stroke-opacity:1;stroke-dasharray:none" id="path3912" d="M 4.489454,25.572803 C 3.7628231,24.85776 3.1372236,24.148879 3.0992328,23.997511 3.061242,23.846143 3.1168586,23.558827 3.2228252,23.35903 3.3287917,23.159233 5.2207675,21.194587 7.4272158,18.993151 L 11.43894,14.990539 7.2448937,10.789604 C 4.9083269,8.449199 3.0508475,6.4892958 3.0508475,6.3642927 c 0,-0.428911 0.3654962,-0.9176737 1.5604697,-2.0867503 1.0321836,-1.0098147 1.2620182,-1.1758475 1.6276933,-1.1758475 0.3894243,0 0.7818263,0.3554257 4.5933945,4.1605543 L 15,11.422803 19.167595,7.2622492 c 3.811569,-3.8051286 4.20397,-4.1605543 4.593394,-4.1605543 0.365676,0 0.59551,0.1660328 1.627694,1.1758475 1.194973,1.1690766 1.56047,1.6578393 1.56047,2.0867503 0,0.1250031 -1.85748,2.0849063 -4.194046,4.4253113 l -4.194047,4.200935 4.011724,4.002612 c 2.206448,2.201436 4.098424,4.166082 4.204391,4.365879 0.105966,0.199797 0.161583,0.487113 0.123592,0.638481 -0.03799,0.151368 -0.663591,0.860249 -1.390221,1.575292 -1.14688,1.12859 -1.377485,1.300078 -1.748252,1.300078 -0.391137,0 -0.778057,-0.35036 -4.594699,-4.160553 L 15,18.551772 10.832405,22.712328 c -3.8166421,3.810193 -4.2035618,4.160553 -4.5946996,4.160553 -0.3707668,0 -0.6013716,-0.171488 -1.7482514,-1.300078 l 0,0 z"/>
</svg>
