<?xml version="1.0" encoding="utf-8"?>
<!-- Generator: Adobe Illustrator 19.2.1, SVG Export Plug-In . SVG Version: 6.00 Build 0)  -->
<svg version="1.1" id="图层_1" xmlns="http://www.w3.org/2000/svg" xmlns:xlink="http://www.w3.org/1999/xlink" x="0px" y="0px"
	 width="30px" height="30px" viewBox="0 0 30 30" enable-background="new 0 0 30 30" xml:space="preserve">
<g>
	<rect fill="none" width="30" height="30"/>
	<path fill="#FFFFFF" d="M13,28c-0.152,0-0.305-0.034-0.446-0.105C12.214,27.726,12,27.379,12,27V15.374L4.295,6.709
		c-0.287-0.286-0.374-0.716-0.219-1.09C4.23,5.244,4.595,5,5,5h20c0.404,0,0.77,0.244,0.924,0.617
		c0.155,0.374,0.069,0.804-0.217,1.09l-7.728,8.728V24c0,0.313-0.147,0.609-0.398,0.799l-3.979,3C13.425,27.932,13.213,28,13,28z"/>
	<linearGradient id="SVGID_1_" gradientUnits="userSpaceOnUse" x1="15.0002" y1="27" x2="15.0002" y2="4">
		<stop  offset="0" style="stop-color:#636363"/>
		<stop  offset="1" style="stop-color:#000000"/>
	</linearGradient>
	<path fill="url(#SVGID_1_)" d="M13,27c-0.152,0-0.305-0.034-0.446-0.105C12.214,26.726,12,26.379,12,26V14.374L4.295,5.709
		c-0.287-0.286-0.374-0.716-0.219-1.09C4.23,4.244,4.595,4,5,4h20c0.404,0,0.77,0.244,0.924,0.617
		c0.155,0.374,0.069,0.804-0.217,1.09l-7.728,8.728V23c0,0.313-0.147,0.609-0.398,0.799l-3.979,3C13.425,26.932,13.213,27,13,27z"/>
</g>
<g>
</g>
<g>
</g>
<g>
</g>
<g>
</g>
<g>
</g>
<g>
</g>
</svg>
