<?xml version="1.0" encoding="utf-8"?>
<!-- Generator: Adobe Illustrator 16.0.0, SVG Export Plug-In . SVG Version: 6.00 Build 0)  -->
<!DOCTYPE svg PUBLIC "-//W3C//DTD SVG 1.1//EN" "http://www.w3.org/Graphics/SVG/1.1/DTD/svg11.dtd">
<svg version="1.1" id="图层_1" xmlns="http://www.w3.org/2000/svg" xmlns:xlink="http://www.w3.org/1999/xlink" x="0px" y="0px"
	 width="30px" height="30px" viewBox="0 0 30 30" enable-background="new 0 0 30 30" xml:space="preserve">
<g>
	<path fill="#FFFFFF" d="M5.5,27C4.673,27,4,26.327,4,25.5v-10C4,14.673,4.673,14,5.5,14h1C7.327,14,8,14.673,8,15.5V23h7.5
		c0.827,0,1.5,0.673,1.5,1.5v1c0,0.827-0.673,1.5-1.5,1.5H5.5z M14.5,5C13.673,5,13,5.673,13,6.5v1C13,8.327,13.673,9,14.5,9H22v7.5
		c0,0.827,0.673,1.5,1.5,1.5h1c0.827,0,1.5-0.673,1.5-1.5v-10C26,5.673,25.327,5,24.5,5H14.5z"/>
	<rect fill="none" width="30" height="30"/>
	<linearGradient id="SVGID_1_" gradientUnits="userSpaceOnUse" x1="15.0005" y1="26" x2="15.0005" y2="4.7286">
		<stop  offset="0" style="stop-color:#636363"/>
		<stop  offset="1" style="stop-color:#000000"/>
	</linearGradient>
	<path fill="url(#SVGID_1_)" d="M5.5,26C4.673,26,4,25.327,4,24.5v-10C4,13.673,4.673,13,5.5,13h1C7.327,13,8,13.673,8,14.5V22h7.5
		c0.827,0,1.5,0.673,1.5,1.5v1c0,0.827-0.673,1.5-1.5,1.5H5.5z M14.5,4C13.673,4,13,4.673,13,5.5v1C13,7.327,13.673,8,14.5,8H22v7.5
		c0,0.827,0.673,1.5,1.5,1.5h1c0.827,0,1.5-0.673,1.5-1.5v-10C26,4.673,25.327,4,24.5,4H14.5z"/>
</g>
</svg>
