<?xml version="1.0" encoding="utf-8"?>
<!-- Generator: Adobe Illustrator 17.0.0, SVG Export Plug-In . SVG Version: 6.00 Build 0)  -->
<!DOCTYPE svg PUBLIC "-//W3C//DTD SVG 1.1//EN" "http://www.w3.org/Graphics/SVG/1.1/DTD/svg11.dtd">
<svg version="1.1" xmlns="http://www.w3.org/2000/svg" xmlns:xlink="http://www.w3.org/1999/xlink" x="0px" y="0px" width="200px"
	 height="100px" viewBox="0 0 200 100" enable-background="new 0 0 200 100" xml:space="preserve">
<g id="图层_1">
	<g>
		<rect fill="none" width="200" height="100"/>
		<g>
			<g>
				<g>
					<g>
						<path d="M134.162,34.325v3.199h6.492v-3.199H134.162z"/>
					</g>
				</g>
			</g>
			<g>
				<g>
					<path fill="#0080C3" d="M70.001,65.371h-2.728v0.376v0.47h2.634h0.846v0.847h-2.446v2.164v0.471h8.185v-2.634h-2.54v-0.847
						h0.847h2.822l-0.095-0.376v-0.188l0.095-0.282h-2.822H70.001z M71.694,67.911h1.411v1.035h-1.411V67.911z M71.694,66.218h1.411
						v0.847h-1.411V66.218z M69.248,67.911h1.505v1.035h-1.505V67.911z M73.952,67.911h1.6v1.035h-1.6V67.911z"/>
					<path fill="#0080C3" d="M72.541,70.263l-1.034-0.376l-0.189,0.282l-0.377,0.659l-3.857-0.094l0.094,0.376v0.188l-0.094,0.282
						h3.198l-0.941,1.035l3.01,0.47l-4.515,0.565l-0.47-0.094l0.377,0.47l0.188,0.658l0.471-0.094l1.411-0.188l1.881-0.282
						l1.787-0.659c1.318,0.377,2.258,0.753,2.916,1.129l0.283,0.094l0.282-0.47l0.376-0.376l-3.105-0.941l0.942-1.317h2.634v-0.282
						v-0.282v-0.282l-5.645,0.094L72.541,70.263z M73.199,72.616l-2.258-0.471l0.565-0.565h2.539L73.199,72.616z"/>
				</g>
			</g>
			<g>
				<g>
					<path fill="#0080C3" d="M94.368,64.901l-1.223-0.376l-0.095,0.376l-0.188,0.565l-0.376,0.658h-2.258h-1.599l0.094,0.471
						l-0.094,0.47h1.599h1.694l-1.882,2.352l-1.599,1.128l-0.283,0.095c0.565,0.282,0.941,0.47,1.129,0.752l0.095-0.094l1.693-1.599
						l-0.094,4.986h1.223l-0.095-2.163h4.61v0.752l-0.094,0.377l-0.471,0.094l-0.94-0.094l0.47,0.752l0.094,0.471l1.693-0.377
						l0.283-0.753l0.093-5.833l-1.411,0.094h-3.951l0.659-0.941h4.61h1.693l-0.094-0.47v-0.188l0.094-0.282h-1.693h-4.14
						L94.368,64.901z M96.719,70.64v0.94h-4.61v-0.94H96.719z M96.719,68.852v1.129h-4.61v-1.129H96.719z"/>
				</g>
			</g>
			<g>
				<g>
					<path fill="#0080C3" d="M111.396,67.347l-1.129,1.787l-0.282,0.283l0.377,0.282l0.376,0.564l1.129-1.787l-0.094,6.209h1.129
						l-0.094-7.902l0.94-1.882l-1.129-0.564l-0.377,1.317L111.396,67.347z"/>
					<path fill="#0080C3" d="M116.947,65.089l-1.224-0.47l-0.094,0.47l-0.47,1.223l-0.94,1.599l-0.658,0.753l-0.189,0.282
						c0.376,0.094,0.753,0.282,0.941,0.47l1.317-2.07h4.234l-0.941,1.693l1.129,0.188l1.224-2.822h-1.318H116.1L116.947,65.089z"/>
					<path fill="#0080C3" d="M119.392,69.981l-0.94,0.377l0.188,0.282l0.564,0.846l0.47,1.13l0.282,0.752
						c0.377-0.188,0.753-0.376,1.129-0.47L119.392,69.981z"/>
					<path fill="#0080C3" d="M117.792,68.194l-0.564,0.094l-0.565-0.094l0.095,4.892c0,0.282-0.095,0.376-0.188,0.471l-0.564,0.188
						l-0.659-0.094l0.376,0.658l0.094,0.283v0.282l1.036-0.188c0.376-0.188,0.658-0.282,0.753-0.376l0.187-0.565v-4.798V68.194z"/>
					<path fill="#0080C3" d="M115.911,70.358l-1.129-0.47l-0.47,1.411l-0.282,0.753l-0.47,0.753l-0.189,0.188l0.941,0.376
						L115.911,70.358z"/>
				</g>
			</g>
			<g>
				<g>
					<path fill="#0080C3" d="M133.787,64.619l-0.095,0.565l-0.188,1.505h-1.318l-0.094,7.714h0.753h0.282V73.18h2.351v1.129h1.13
						l-0.094-5.55l0.846,0.376l0.189-0.094l0.941-1.599h2.54l-0.377,5.175l-0.094,0.47l-0.189,0.471l-0.752,0.094l-0.848-0.094
						l-0.281-0.095l0.471,0.847l0.094,0.47l1.788-0.376l0.753-0.564l0.094-0.565l0.471-6.585h-0.941h-2.447l0.848-1.693l-1.035-0.47
						l-0.094,0.376l-0.471,1.411l-0.47,0.941l-0.847,1.224l-0.188,0.188v-1.411l0.094-0.564h-2.258l0.565-1.788L133.787,64.619z
						 M135.479,67.441v2.164h-2.351v-2.164H135.479z M135.479,70.358v2.069h-2.351v-2.069H135.479z"/>
					<path fill="#0080C3" d="M138.584,69.228l-0.94,0.471c0.658,0.941,0.94,1.505,1.035,1.787l0.093,0.283l0.941-0.565
						L138.584,69.228z"/>
				</g>
			</g>
			<g>
				<g>
					<path fill="#0080C3" d="M162.574,64.995h-0.283l-2.446,0.282l-3.199,0.094l-2.352-0.094l-0.471-0.094l0.283,0.376l0.188,0.564
						h3.293l-0.188,0.658h-1.317l-1.506-0.094v0.847l1.506-0.094h1.034l-0.47,0.847l-3.48-0.094v0.282v0.564l2.069-0.094h1.035
						l-1.223,1.223l-1.035,0.753l-0.847,0.377l-0.376,0.094l0.376,0.283l0.564,0.565l2.069-1.6l-0.095,4.139h0.471h0.658v-0.658
						h4.61v0.282l-0.094,0.471l0.565-0.094l0.564,0.094v-5.363h-5.551l0.471-0.564h4.516l2.258,0.094l-0.094-0.376l0.094-0.47
						l-6.398,0.094l0.376-0.847l4.328,0.094l-0.094-0.377v-0.094l0.094-0.376l-1.6,0.094h-2.445l0.187-0.658l4.516-0.188
						L162.574,64.995z M156.742,70.828v-0.659h4.704v0.659H156.742z M156.742,73.462v-0.658h4.704v0.658H156.742z M156.742,72.145
						v-0.659h4.704v0.659H156.742z"/>
				</g>
			</g>
			<g>
				<g>
					<path fill="#0080C3" d="M182.048,64.807h-1.129l0.094,1.882h-1.411l-0.94-0.094v0.47v0.564l2.351-0.094v1.787h-1.693
						l-1.411-0.094v0.565v0.47l1.411-0.094h1.317l-0.753,1.411l-0.847,1.317l-0.94,0.659l0.376,0.564l0.189,0.376l2.351-0.376
						l2.635-0.282l0.281,0.658l0.189,0.188l1.129-0.564l-0.565-0.659l-1.317-1.693l-0.471-0.565l-0.94,0.47l0.281,0.376l0.941,1.129
						l-3.481,0.188l2.259-2.728l-0.753-0.471h2.823l1.505,0.094v-0.47v-0.565l-1.505,0.094h-1.976v-1.787l2.823,0.094v-0.471v-0.564
						l-1.223,0.094h-1.6V64.807z"/>
					<path fill="#0080C3" d="M175.839,66.124l0.377,0.188l1.035,0.846l0.282,0.283l0.753-0.846l-1.693-1.223L175.839,66.124z"/>
					<path fill="#0080C3" d="M175.557,67.817l-0.753,0.847l1.129,0.564l0.847,0.565l0.752-0.847L175.557,67.817z"/>
					<path fill="#0080C3" d="M177.533,70.922l-0.564-0.188l-0.376-0.376l-0.094,0.282l-0.471,1.6l-0.658,1.317l-0.189,0.376
						c0.377,0.188,0.753,0.376,1.13,0.659l0.094-0.283L177.533,70.922z"/>
				</g>
			</g>
			<g>
				<g>
					<g>
						<path d="M132.375,47.12v-3.198h-8.938v-5.268h-4.986v5.268h-3.857c-0.189,0-0.47-0.094-0.565-0.188l-0.188-0.752v-4.61
							c0-0.565,0.283-0.847,0.941-0.847h17.687v-3.199h-20.603c-1.035,0-1.788,0.283-2.258,0.846
							c-0.564,0.565-0.847,1.317-0.847,2.352v6.209c0,1.035,0.282,1.787,0.847,2.446c0.47,0.565,1.224,0.941,2.07,0.941h6.774
							v10.819h4.986V47.12H132.375z"/>
					</g>
				</g>
			</g>
			<g>
				<g>
					<g>
						<path d="M130.87,57.657h2.352v-3.105h-0.847c-0.189,0-0.471-0.094-0.564-0.188l-0.377-0.659l-1.505-5.08v-0.189h-5.08
							l2.07,7.244c0.282,0.847,0.752,1.411,1.411,1.693L130.87,57.657z"/>
					</g>
				</g>
			</g>
			<g>
				<g>
					<g>
						<path d="M111.866,48.437v0.189l-1.505,4.892l-0.377,0.659c-0.188,0.282-0.47,0.376-0.847,0.376h-0.753v3.105h2.352
							l2.634-0.377c0.753-0.376,1.223-0.941,1.506-1.882l2.07-6.962H111.866z"/>
					</g>
				</g>
			</g>
			<g>
				<g>
					<g>
						<path d="M142.254,41.475c0-0.847-0.189-1.505-0.659-1.976c-0.47-0.565-1.129-0.847-1.975-0.847h-5.457v3.199h3.576
							l-1.317,5.645l-0.471,1.317c-0.282,0.188-0.564,0.377-0.846,0.377h-0.941v3.199h1.788v5.551h5.081v-8.467h1.223V41.475z"/>
					</g>
				</g>
			</g>
			<g>
				<g>
					<g>
						<path d="M153.637,47.12v-8.467h-4.61v5.268v1.223l-0.47,1.694l-1.6,3.293l-1.411,2.634l-1.129,1.505l-1.223,0.282h-0.847
							v3.105h2.54l2.634-0.47c0.565-0.282,1.129-0.847,1.505-1.694l1.882-3.575v2.54c0,0.941,0.188,1.694,0.752,2.258
							c0.471,0.658,1.13,0.941,1.976,0.941h6.68v-3.105h-4.046l-1.035-0.188c-0.282-0.094-0.47-0.47-0.47-1.035V47.12H153.637z"/>
					</g>
				</g>
			</g>
			<g>
				<g>
					<g>
						<path d="M158.905,35.266c-0.564-0.564-1.317-0.846-2.164-0.846h-13.83v15.053h4.327V37.524h7.903v11.76h4.515V37.618
							C159.658,36.583,159.375,35.831,158.905,35.266z"/>
					</g>
				</g>
			</g>
			<g>
				<g>
					<g>
						<path d="M185.341,37.618c0-0.847-0.282-1.599-0.753-2.258c-0.659-0.659-1.411-0.941-2.446-0.941h-20.792v23.52h4.422v-1.223
							h1.787l1.129-0.188c0.188-0.188,0.471-0.471,0.658-1.035l0.753-2.352l0.752,2.352c0.189,0.47,0.47,0.847,0.847,1.035
							l0.847,0.188h1.411c0.564,0,1.035-0.094,1.317-0.377l0.564-1.035l0.753-2.164l0.752,2.352l0.659,0.941l1.129,0.282h1.788
							v1.223h4.422V37.618z M180.262,42.228l0.187-0.376l0.282-0.094h0.188v11.948h-0.094c-0.282,0-0.471-0.094-0.564-0.47
							l-1.882-5.551L180.262,42.228z M180.92,37.524v1.129h-1.976c-0.846,0-1.411,0.47-1.6,1.317l-0.752,2.164l-0.658-2.07
							l-0.564-1.035c-0.282-0.188-0.753-0.376-1.223-0.376h-1.599c-0.47,0-0.941,0.188-1.224,0.47
							c-0.188,0.188-0.47,0.564-0.564,1.129l-0.658,1.882l-0.753-2.07c-0.094-0.564-0.376-0.846-0.658-1.035
							c-0.376-0.282-0.846-0.376-1.505-0.376h-1.411v-1.129H180.92z M171.888,47.685l1.411-4.328l1.506,4.328l-1.506,4.328
							L171.888,47.685z M165.773,41.757h0.094c0.282,0,0.471,0.094,0.471,0.282l1.881,5.645l-1.788,5.457l-0.282,0.47l-0.376,0.094
							l0,0V41.757z"/>
					</g>
				</g>
			</g>
			<g>
				<g>
					<g>
						<path fill="#C9171D" d="M27.195,33.855c0-0.847-0.282-1.505-0.752-2.069c-0.47-0.47-1.129-0.659-1.975-0.659h-5.269
							c-0.846,0-1.505,0.188-2.069,0.659c-0.47,0.47-0.658,1.129-0.658,2.069v21.168c0,0.659,0.188,1.317,0.752,1.882
							c0.47,0.565,1.223,0.847,2.07,0.847h14.112c1.035,0,1.787-0.188,2.164-0.564c0.47-0.282,0.752-0.847,0.752-1.694v-1.317
							c0-0.752-0.282-1.411-0.752-1.787c-0.377-0.376-1.035-0.565-1.882-0.565h-3.952c-0.847,0-1.505-0.188-1.975-0.659
							c-0.377-0.376-0.565-0.941-0.565-1.599V33.855z"/>
					</g>
				</g>
			</g>
			<g>
				<g>
					<g>
						<path fill="#C9171D" d="M59.464,42.981c0.846-0.282,1.317-0.846,1.505-1.599c0.189-0.752,0.094-1.411-0.188-1.882
							c-1.223-2.258-2.916-3.951-4.986-5.268c-2.07-1.223-4.327-1.882-6.774-1.882c-1.693,0-3.387,0.377-4.986,1.035
							c-1.599,0.659-3.011,1.599-4.328,2.822c-1.223,1.317-2.164,2.728-2.822,4.328c-0.658,1.6-1.035,3.293-1.035,4.986
							c0,1.788,0.377,3.481,1.035,5.081c0.658,1.599,1.599,3.01,2.822,4.234c1.317,1.223,2.728,2.258,4.328,2.822
							c1.599,0.658,3.293,1.034,4.986,1.034c2.729,0,5.081-0.658,7.338-2.163c2.164-1.505,3.764-3.387,4.799-5.833
							c0-0.188,0-0.376-0.189-0.47l-0.47,0.377c-0.753,1.035-1.694,1.788-3.011,2.352c-1.223,0.47-2.634,0.752-4.234,0.752
							l-3.952-0.659c-1.223-0.47-2.257-1.129-3.198-1.882c-0.941-0.941-1.411-1.693-1.318-2.352
							c0.094-0.376,0.377-0.658,0.941-0.847C50.526,46.368,55.136,44.768,59.464,42.981z M50.526,36.395
							c1.129,0,2.164,0.282,3.105,0.658c0.846,0.47,1.317,0.941,1.411,1.599c0.188,0.847-0.377,1.411-1.694,1.787l-3.199,1.129
							l-4.704,1.693l-0.847,0.094c-0.753,0-1.223-0.376-1.411-1.035c-0.188-0.941,0.188-1.881,0.941-3.01
							c0.941-1.223,2.259-2.07,3.858-2.54L50.526,36.395z"/>
					</g>
				</g>
			</g>
			<g>
				<g>
					<g>
						<path fill="#C9171D" d="M83.737,38.277V36.96c0-1.6-0.847-2.352-2.446-2.352h-3.198v-0.753c0-0.847-0.283-1.505-0.753-2.069
							c-0.47-0.47-1.128-0.659-2.069-0.659h-5.174c-0.847,0-1.506,0.188-2.07,0.659c-0.47,0.47-0.658,1.129-0.658,2.069v0.753
							h-2.352c-0.941,0-1.693,0.188-2.164,0.47c-0.47,0.376-0.658,0.941-0.658,1.693v1.317c0,1.599,0.847,2.352,2.446,2.352h2.728
							v14.582c0,0.659,0.188,1.317,0.658,1.882c0.565,0.565,1.317,0.847,2.164,0.847H81.29c0.941,0,1.694-0.188,2.164-0.564
							c0.375-0.282,0.658-0.847,0.658-1.694v-1.317c0-1.505-0.846-2.352-2.539-2.352h-1.223c-0.846,0-1.505-0.188-1.787-0.47
							c-0.377-0.376-0.47-0.847-0.47-1.505V40.44h2.727c1.036,0,1.693-0.188,2.164-0.471C83.455,39.594,83.737,39.029,83.737,38.277
							z"/>
					</g>
				</g>
			</g>
			<g>
				<g>
					<g>
						<path fill="#C9171D" d="M107.162,36.583c0.188-0.564,0.094-1.035-0.188-1.411c-0.282-0.376-0.753-0.564-1.411-0.564h-5.926
							c-0.565,0-1.129,0.188-1.6,0.564c-0.565,0.377-0.846,0.847-1.035,1.505l-2.539,9.878l-0.659,0.47
							c-0.376,0-0.565-0.188-0.658-0.47l-2.353-10.725c-0.282-0.847-0.847-1.317-1.881-1.317h-2.634
							c-0.283,0-0.564,0.094-0.753,0.376c-0.188,0.188-0.188,0.47-0.188,0.752l4.798,20.133c0.188,0.564,0.377,1.035,0.753,1.317
							c0.471,0.47,1.035,0.565,1.6,0.565h5.927c0.753,0,1.411-0.188,1.975-0.659c0.565-0.47,0.941-1.129,1.223-1.882L107.162,36.583
							z"/>
					</g>
				</g>
			</g>
		</g>
	</g>
</g>
<g id="图层_2">
</g>
<g id="图层_3">
	<g>
	</g>
	<g>
	</g>
	<g>
	</g>
	<g>
	</g>
	<g>
	</g>
	<g>
	</g>
</g>
</svg>
