<?xml version="1.0" encoding="utf-8"?>
<!-- Generator: Adobe Illustrator 17.0.0, SVG Export Plug-In . SVG Version: 6.00 Build 0)  -->
<!DOCTYPE svg PUBLIC "-//W3C//DTD SVG 1.1//EN" "http://www.w3.org/Graphics/SVG/1.1/DTD/svg11.dtd">
<svg version="1.1" id="图层_1" xmlns="http://www.w3.org/2000/svg" xmlns:xlink="http://www.w3.org/1999/xlink" x="0px" y="0px"
	 width="160px" height="85px" viewBox="0 0 160 85" enable-background="new 0 0 160 85" xml:space="preserve">
<path opacity="0" d="M0,0v85h160V0H0z M155,70c0,5.523-4.477,10-10,10H15C9.477,80,5,75.523,5,70V15C5,9.477,9.477,5,15,5h130
	c5.523,0,10,4.477,10,10V70z"/>
<path opacity="0.01" d="M145,2H15C7.28,2,1,8.28,1,16v55c0,7.72,6.28,14,14,14h130c7.72,0,14-6.28,14-14V16C159,8.28,152.72,2,145,2
	z M155,70c0,5.523-4.477,10-10,10H15C9.477,80,5,75.523,5,70V15C5,9.477,9.477,5,15,5h130c5.523,0,10,4.477,10,10V70z"/>
<path opacity="0.03" d="M145,3H15C7.832,3,2,8.832,2,16v55c0,7.168,5.832,13,13,13h130c7.168,0,13-5.832,13-13V16
	C158,8.832,152.168,3,145,3z M155,70c0,5.523-4.477,10-10,10H15C9.477,80,5,75.523,5,70V15C5,9.477,9.477,5,15,5h130
	c5.523,0,10,4.477,10,10V70z"/>
<path opacity="0.05" d="M145,4H15C8.383,4,3,9.383,3,16v55c0,6.617,5.383,12,12,12h130c6.617,0,12-5.383,12-12V16
	C157,9.383,151.617,4,145,4z M155,70c0,5.523-4.477,10-10,10H15C9.477,80,5,75.523,5,70V15C5,9.477,9.477,5,15,5h130
	c5.523,0,10,4.477,10,10V70z"/>
<path opacity="0.1" d="M146.024,5.052C151.066,5.565,155,9.823,155,15v55c0,5.523-4.477,10-10,10H15C9.477,80,5,75.523,5,70V15
	c0-5.177,3.934-9.435,8.976-9.948C8.389,5.571,4,10.28,4,16v55c0,6.065,4.935,11,11,11h130c6.065,0,11-4.935,11-11V16
	C156,10.28,151.611,5.571,146.024,5.052z"/>
<path opacity="0.2" d="M145,80H15C9.477,80,5,75.523,5,70v1c0,5.523,4.477,10,10,10h130c5.523,0,10-4.477,10-10v-1
	C155,75.523,150.523,80,145,80z"/>
<linearGradient id="SVGID_1_" gradientUnits="userSpaceOnUse" x1="80" y1="80" x2="80" y2="5">
	<stop  offset="0" style="stop-color:#E6E6E6"/>
	<stop  offset="0.75" style="stop-color:#FAFAFA"/>
</linearGradient>
<path opacity="0.8" fill="url(#SVGID_1_)" d="M155,70c0,5.523-4.477,10-10,10H15C9.477,80,5,75.523,5,70V15C5,9.477,9.477,5,15,5
	h130c5.523,0,10,4.477,10,10V70z"/>
<path opacity="0.1" d="M145,78H15C9.477,78,5,73.523,5,68v2c0,5.523,4.477,10,10,10h130c5.523,0,10-4.477,10-10v-2
	C155,73.523,150.523,78,145,78z"/>
<path fill="#FFFFFF" d="M145,5H15C9.477,5,5,9.477,5,15v1C5,10.477,9.477,6,15,6h130c5.523,0,10,4.477,10,10v-1
	C155,9.477,150.523,5,145,5z"/>
<g>
</g>
<g>
</g>
<g>
</g>
<g>
</g>
<g>
</g>
<g>
</g>
</svg>
