<?xml version="1.0" encoding="utf-8"?>
<!-- Generator: Adobe Illustrator 16.0.0, SVG Export Plug-In . SVG Version: 6.00 Build 0)  -->
<!DOCTYPE svg PUBLIC "-//W3C//DTD SVG 1.1//EN" "http://www.w3.org/Graphics/SVG/1.1/DTD/svg11.dtd">
<svg version="1.1" id="图层_1" xmlns="http://www.w3.org/2000/svg" xmlns:xlink="http://www.w3.org/1999/xlink" x="0px" y="0px"
	 width="30px" height="30px" viewBox="0 0 30 30" enable-background="new 0 0 30 30" xml:space="preserve">
<g>
	<path fill="#FFFFFF" d="M12.5,16.998c0.827,0,1.5,0.674,1.5,1.5v8c0,0.828-0.673,1.5-1.5,1.5h-1c-0.827,0-1.5-0.672-1.5-1.5v-5.5
		H4.5c-0.827,0-1.5-0.672-1.5-1.5v-1c0-0.826,0.673-1.5,1.5-1.5H12.5z M25.5,15.001c0.826,0,1.5-0.673,1.5-1.5v-1
		c0-0.827-0.674-1.5-1.5-1.5H20v-5.5c0-0.827-0.674-1.5-1.5-1.5h-1c-0.828,0-1.5,0.673-1.5,1.5v8c0,0.827,0.672,1.5,1.5,1.5H25.5z"
		/>
	<rect fill="none" width="30" height="30"/>
	<linearGradient id="SVGID_1_" gradientUnits="userSpaceOnUse" x1="15.0005" y1="26.998" x2="15.0005" y2="3.7961">
		<stop  offset="0" style="stop-color:#636363"/>
		<stop  offset="1" style="stop-color:#000000"/>
	</linearGradient>
	<path fill="url(#SVGID_1_)" d="M12.5,15.998c0.827,0,1.5,0.674,1.5,1.5v8c0,0.828-0.673,1.5-1.5,1.5h-1c-0.827,0-1.5-0.672-1.5-1.5
		v-5.5H4.5c-0.827,0-1.5-0.672-1.5-1.5v-1c0-0.826,0.673-1.5,1.5-1.5H12.5z M25.5,14.001c0.826,0,1.5-0.673,1.5-1.5v-1
		c0-0.827-0.674-1.5-1.5-1.5H20v-5.5c0-0.827-0.674-1.5-1.5-1.5h-1c-0.828,0-1.5,0.673-1.5,1.5v8c0,0.827,0.672,1.5,1.5,1.5H25.5z"
		/>
</g>
</svg>
