<?xml version="1.0" encoding="utf-8"?>
<!-- Generator: Adobe Illustrator 17.0.0, SVG Export Plug-In . SVG Version: 6.00 Build 0)  -->
<!DOCTYPE svg PUBLIC "-//W3C//DTD SVG 1.1//EN" "http://www.w3.org/Graphics/SVG/1.1/DTD/svg11.dtd">
<svg version="1.1" xmlns="http://www.w3.org/2000/svg" xmlns:xlink="http://www.w3.org/1999/xlink" x="0px" y="0px" width="200px"
	 height="100px" viewBox="0 0 200 100" enable-background="new 0 0 200 100" xml:space="preserve">
<g id="图层_1">
	<g>
		<g>
			<path fill="#D7D7D7" d="M41.509,50.181c-0.991,2.126-2.748,3.737-4.946,4.537c-0.966,0.351-1.972,0.529-2.991,0.529
				c-3.679,0-6.994-2.319-8.251-5.772c-0.8-2.198-0.695-4.579,0.296-6.705c0.991-2.126,2.748-3.737,4.946-4.537
				c0.965-0.351,1.972-0.529,2.991-0.529c3.678,0,6.994,2.319,8.251,5.772C42.606,45.673,42.5,48.054,41.509,50.181z"/>
			
				<linearGradient id="SVGID_1_" gradientUnits="userSpaceOnUse" x1="98.6915" y1="72.87" x2="98.6915" y2="62.9367" gradientTransform="matrix(0.9397 -0.342 0.342 0.9397 -83.4648 13.4968)">
				<stop  offset="0" style="stop-color:#FFFFFF;stop-opacity:0.3"/>
				<stop  offset="1" style="stop-color:#FFFFFF"/>
			</linearGradient>
			<path opacity="0.8" fill="url(#SVGID_1_)" d="M38.801,41.257c0.938,2.578-1.123,5.694-4.603,6.961
				c-3.48,1.267-7.062,0.204-8-2.374c-0.938-2.578,1.123-5.694,4.603-6.961S37.862,38.679,38.801,41.257z"/>
			
				<linearGradient id="SVGID_2_" gradientUnits="userSpaceOnUse" x1="98.6915" y1="70.5388" x2="98.6915" y2="63.9766" gradientTransform="matrix(0.9397 -0.342 0.342 0.9397 -83.4648 13.4968)">
				<stop  offset="0" style="stop-color:#FFFFFF;stop-opacity:0.3"/>
				<stop  offset="1" style="stop-color:#FFFFFF"/>
			</linearGradient>
			<path fill="url(#SVGID_2_)" d="M37.597,41.008c0.62,1.703-1.259,3.95-4.196,5.019c-2.937,1.069-5.821,0.555-6.441-1.148
				s1.259-3.95,4.196-5.019C34.093,38.792,36.977,39.305,37.597,41.008z"/>
			
				<linearGradient id="SVGID_3_" gradientUnits="userSpaceOnUse" x1="-105.6123" y1="395.649" x2="-105.6123" y2="388.1784" gradientTransform="matrix(-0.9397 0.342 -0.342 -0.9397 69.9483 455.2309)">
				<stop  offset="0" style="stop-color:#FFFFFF;stop-opacity:0.3"/>
				<stop  offset="1" style="stop-color:#FFFFFF"/>
			</linearGradient>
			<path opacity="0.8" fill="url(#SVGID_3_)" d="M29.83,52.767c-0.706-1.939,1.104-4.377,4.041-5.446
				c2.937-1.069,5.891-0.364,6.596,1.574c0.706,1.939-1.104,4.377-4.041,5.446S30.536,54.705,29.83,52.767z"/>
			<path fill="#FF6600" d="M33.568,51.391c-2.062,0-3.92-1.3-4.624-3.235c-0.448-1.232-0.389-2.566,0.166-3.758
				c0.555-1.191,1.54-2.094,2.772-2.543c0.541-0.197,1.105-0.297,1.676-0.297c2.062,0,3.92,1.3,4.624,3.235
				c0.448,1.232,0.389,2.566-0.166,3.757c-0.556,1.191-1.54,2.094-2.772,2.543C34.704,51.291,34.14,51.391,33.568,51.391z"/>
			
				<linearGradient id="SVGID_4_" gradientUnits="userSpaceOnUse" x1="180.8057" y1="652.4323" x2="180.8057" y2="644.6052" gradientTransform="matrix(0.5209 -0.1896 -0.1292 -0.355 24.3063 314.1041)">
				<stop  offset="0" style="stop-color:#FFFFFF;stop-opacity:0.1"/>
				<stop  offset="1" style="stop-color:#FFFFFF"/>
			</linearGradient>
			<path opacity="0.4" fill="url(#SVGID_4_)" d="M37.522,48.593c-0.279-0.767-1.766-0.93-3.321-0.365
				c-1.555,0.566-2.589,1.647-2.309,2.414c0.279,0.767,1.766,0.93,3.321,0.365C36.768,50.441,37.802,49.36,37.522,48.593z"/>
			
				<linearGradient id="SVGID_5_" gradientUnits="userSpaceOnUse" x1="-173.5472" y1="-127.5551" x2="-173.5472" y2="-136.3589" gradientTransform="matrix(-0.5644 0.2054 0.207 0.5688 -37.7968 155.1625)">
				<stop  offset="0" style="stop-color:#FFFFFF;stop-opacity:0.3"/>
				<stop  offset="1" style="stop-color:#FFFFFF"/>
			</linearGradient>
			<path opacity="0.8" fill="url(#SVGID_5_)" d="M29.409,45.706c0.503,1.383,2.443,1.946,4.333,1.258
				c1.89-0.688,3.013-2.366,2.51-3.749c-0.503-1.383-2.443-1.946-4.333-1.258C30.03,42.645,28.906,44.323,29.409,45.706z"/>
			<path fill="#D7D7D7" d="M73.145,50.181c-0.991,2.126-2.748,3.737-4.946,4.537c-0.966,0.351-1.972,0.529-2.991,0.529
				c-3.679,0-6.994-2.319-8.251-5.772c-0.8-2.198-0.695-4.579,0.296-6.705c0.991-2.126,2.748-3.737,4.946-4.537
				c0.965-0.351,1.972-0.529,2.991-0.529c3.678,0,6.994,2.319,8.251,5.772C74.241,45.673,74.136,48.054,73.145,50.181z"/>
			<linearGradient id="SVGID_6_" gradientUnits="userSpaceOnUse" x1="65.3083" y1="64.657" x2="65.3083" y2="31.343">
				<stop  offset="0" style="stop-color:#0280DD"/>
				<stop  offset="1" style="stop-color:#43A2EE"/>
			</linearGradient>
			<path fill="url(#SVGID_6_)" d="M70.484,32.251c-1.656-0.603-3.397-0.908-5.176-0.908c-4.035,0-7.833,1.576-10.695,4.438
				c-2.862,2.862-4.437,6.66-4.438,10.695c0,0,0,15.093,0,15.097c0,1.703,1.381,3.084,3.084,3.084c1.703,0,2.954-1.386,3.084-3.084
				c0.033-0.432,0.42-1.058,0.786-1.239c0.733-0.363,2.327,0.054,3.007,0.367c1.6,0.736,3.394,0.907,5.17,0.907
				c4.042,0,7.842-1.574,10.7-4.432c2.858-2.858,4.432-6.658,4.432-10.7C80.441,40.135,76.439,34.419,70.484,32.251z M73.145,50.181
				c-0.991,2.126-2.748,3.737-4.946,4.537c-0.966,0.351-1.972,0.529-2.991,0.529c-3.679,0-6.994-2.319-8.251-5.772
				c-0.8-2.198-0.695-4.579,0.296-6.705c0.991-2.126,2.748-3.737,4.946-4.537c0.965-0.351,1.972-0.529,2.991-0.529
				c3.678,0,6.994,2.319,8.251,5.772C74.241,45.673,74.136,48.054,73.145,50.181z"/>
			<linearGradient id="SVGID_7_" gradientUnits="userSpaceOnUse" x1="65.3082" y1="63.3656" x2="65.3082" y2="32.6343">
				<stop  offset="0" style="stop-color:#0280DD"/>
				<stop  offset="1" style="stop-color:#43B5EE"/>
			</linearGradient>
			<path opacity="0.2" fill="url(#SVGID_7_)" d="M53.26,63.366c-0.989,0-1.793-0.805-1.793-1.793V46.475
				c0-3.69,1.442-7.164,4.059-9.782c2.618-2.618,6.092-4.059,9.782-4.059c1.627,0,3.22,0.28,4.734,0.831
				c5.447,1.983,9.107,7.211,9.107,13.011c0,3.697-1.44,7.173-4.053,9.787c-2.614,2.614-6.09,4.054-9.786,4.054c0,0,0,0,0,0
				c-2.017,0-3.445-0.243-4.632-0.789c-0.655-0.301-1.805-0.626-2.78-0.626c-0.52,0-0.971,0.092-1.339,0.275
				c-0.772,0.382-1.431,1.391-1.501,2.296C54.985,62.414,54.344,63.366,53.26,63.366z M65.191,36.413
				c-1.171,0-2.325,0.204-3.433,0.607c-2.522,0.918-4.538,2.767-5.674,5.205c-1.137,2.438-1.258,5.17-0.34,7.692
				c1.441,3.96,5.245,6.621,9.464,6.621c1.17,0,2.325-0.204,3.432-0.607c2.523-0.918,4.538-2.767,5.675-5.205
				c1.137-2.439,1.258-5.17,0.34-7.692C73.213,39.074,69.41,36.413,65.191,36.413z"/>
			<linearGradient id="SVGID_8_" gradientUnits="userSpaceOnUse" x1="65.3082" y1="62.72" x2="65.3082" y2="33.2799">
				<stop  offset="0.0739" style="stop-color:#0280DD"/>
				<stop  offset="0.1605" style="stop-color:#1087DF;stop-opacity:0.9346"/>
				<stop  offset="0.3253" style="stop-color:#369AE4;stop-opacity:0.81"/>
				<stop  offset="0.5513" style="stop-color:#74B9EC;stop-opacity:0.6392"/>
				<stop  offset="0.8267" style="stop-color:#C7E3F7;stop-opacity:0.431"/>
				<stop  offset="1" style="stop-color:#FFFFFF;stop-opacity:0.3"/>
			</linearGradient>
			<path opacity="0.2" fill="url(#SVGID_8_)" d="M53.26,62.72c-0.633,0-1.148-0.515-1.148-1.148V46.475
				c0-3.518,1.374-6.829,3.87-9.325c2.496-2.496,5.808-3.87,9.325-3.87c1.551,0,3.07,0.266,4.514,0.792
				c5.193,1.89,8.682,6.875,8.682,12.404c0,3.524-1.372,6.838-3.864,9.331c-2.493,2.492-5.806,3.865-9.329,3.865
				c-1.919,0-3.264-0.225-4.362-0.73c-0.741-0.341-1.971-0.685-3.05-0.685c-0.621,0-1.168,0.115-1.626,0.342
				c-0.972,0.481-1.77,1.696-1.858,2.825C54.373,61.945,54.033,62.72,53.26,62.72z M65.191,35.767c-1.246,0-2.475,0.218-3.653,0.646
				c-2.684,0.978-4.829,2.944-6.039,5.539c-1.21,2.595-1.338,5.502-0.361,8.186c1.534,4.214,5.581,7.046,10.071,7.046
				c1.245,0,2.474-0.218,3.653-0.646c2.685-0.978,4.83-2.944,6.039-5.539c1.21-2.595,1.338-5.502,0.362-8.186
				C73.728,38.599,69.68,35.767,65.191,35.767z"/>
			<linearGradient id="SVGID_9_" gradientUnits="userSpaceOnUse" x1="33.5637" y1="64.657" x2="33.5637" y2="31.343">
				<stop  offset="0" style="stop-color:#0280DD"/>
				<stop  offset="1" style="stop-color:#43A2EE"/>
			</linearGradient>
			<path fill="url(#SVGID_9_)" d="M38.74,32.251c-1.656-0.603-3.397-0.908-5.176-0.908c-4.035,0-7.833,1.576-10.695,4.438
				c-2.862,2.862-4.437,6.66-4.438,10.695c0,0,0,15.093,0,15.097c0,1.703,1.381,3.084,3.084,3.084c1.703,0,2.954-1.386,3.084-3.084
				c0.033-0.432,0.42-1.058,0.786-1.239c0.733-0.363,2.327,0.054,3.007,0.367c1.6,0.736,3.394,0.907,5.17,0.907
				c4.042,0,7.842-1.574,10.7-4.432c2.858-2.858,4.432-6.658,4.432-10.7C48.696,40.135,44.695,34.419,38.74,32.251z M41.509,50.181
				c-0.991,2.126-2.748,3.737-4.946,4.537c-0.966,0.351-1.972,0.529-2.991,0.529c-3.679,0-6.994-2.319-8.251-5.772
				c-0.8-2.198-0.695-4.579,0.296-6.705c0.991-2.126,2.748-3.737,4.946-4.537c0.965-0.351,1.972-0.529,2.991-0.529
				c3.678,0,6.994,2.319,8.251,5.772C42.606,45.673,42.5,48.054,41.509,50.181z"/>
			<linearGradient id="SVGID_10_" gradientUnits="userSpaceOnUse" x1="33.5637" y1="63.3656" x2="33.5637" y2="32.6343">
				<stop  offset="0" style="stop-color:#0280DD"/>
				<stop  offset="1" style="stop-color:#43B5EE"/>
			</linearGradient>
			<path opacity="0.2" fill="url(#SVGID_10_)" d="M21.516,63.366c-0.989,0-1.793-0.805-1.793-1.793V46.475
				c0-3.69,1.442-7.164,4.059-9.782c2.618-2.618,6.092-4.059,9.782-4.059c1.627,0,3.22,0.28,4.734,0.831
				c5.447,1.982,9.107,7.211,9.107,13.011c0,3.697-1.44,7.173-4.054,9.787c-2.614,2.614-6.09,4.054-9.785,4.054c0,0,0,0,0,0
				c-2.017,0-3.445-0.243-4.632-0.789c-0.655-0.301-1.805-0.626-2.78-0.626c-0.52,0-0.971,0.092-1.339,0.275
				c-0.772,0.382-1.431,1.391-1.501,2.296C23.24,62.414,22.6,63.366,21.516,63.366z M33.555,36.413
				c-1.171,0-2.325,0.204-3.433,0.607c-2.522,0.918-4.538,2.767-5.675,5.205c-1.137,2.438-1.258,5.17-0.34,7.692
				c1.441,3.96,5.245,6.621,9.464,6.621c1.17,0,2.325-0.204,3.432-0.607c2.523-0.918,4.538-2.767,5.675-5.205
				c1.137-2.438,1.257-5.17,0.34-7.692C41.578,39.074,37.774,36.413,33.555,36.413z"/>
			<linearGradient id="SVGID_11_" gradientUnits="userSpaceOnUse" x1="33.5637" y1="62.72" x2="33.5637" y2="33.2799">
				<stop  offset="0.0739" style="stop-color:#0280DD"/>
				<stop  offset="0.1605" style="stop-color:#1087DF;stop-opacity:0.9346"/>
				<stop  offset="0.3253" style="stop-color:#369AE4;stop-opacity:0.81"/>
				<stop  offset="0.5513" style="stop-color:#74B9EC;stop-opacity:0.6392"/>
				<stop  offset="0.8267" style="stop-color:#C7E3F7;stop-opacity:0.431"/>
				<stop  offset="1" style="stop-color:#FFFFFF;stop-opacity:0.3"/>
			</linearGradient>
			<path opacity="0.2" fill="url(#SVGID_11_)" d="M21.516,62.72c-0.633,0-1.148-0.515-1.148-1.148V46.475
				c0-3.518,1.374-6.829,3.87-9.325c2.496-2.496,5.808-3.87,9.325-3.87c1.551,0,3.07,0.266,4.513,0.792
				c5.193,1.89,8.682,6.874,8.682,12.404c0,3.525-1.373,6.839-3.865,9.331c-2.492,2.492-5.805,3.865-9.329,3.865
				c-1.919,0-3.264-0.225-4.362-0.73c-0.741-0.341-1.971-0.685-3.05-0.685c-0.621,0-1.168,0.115-1.626,0.342
				c-0.972,0.481-1.77,1.696-1.858,2.825C22.629,61.945,22.289,62.72,21.516,62.72z M33.555,35.767
				c-1.246,0-2.475,0.218-3.653,0.646c-2.684,0.978-4.829,2.944-6.039,5.539c-1.21,2.595-1.338,5.502-0.361,8.186
				c1.534,4.214,5.581,7.046,10.071,7.046c1.245,0,2.474-0.217,3.653-0.646c2.685-0.977,4.829-2.944,6.039-5.539
				c1.21-2.595,1.338-5.502,0.361-8.186C42.092,38.599,38.045,35.767,33.555,35.767z"/>
			<linearGradient id="SVGID_12_" gradientUnits="userSpaceOnUse" x1="100.9994" y1="63.6263" x2="100.9994" y2="34.6141">
				<stop  offset="0" style="stop-color:#0280DD"/>
				<stop  offset="1" style="stop-color:#43A2EE"/>
			</linearGradient>
			<path fill="url(#SVGID_12_)" d="M120.955,35.214c-0.08-0.421-0.962-0.595-0.962-0.595h-2.579c0,0-0.735,0.114-1.39,0.534
				c-0.655,0.421-1.777,1.503-1.991,2.378c-0.214,0.875-4.503,18.707-4.503,18.707s-4.289-17.831-4.503-18.707
				c-0.214-0.875-1.336-1.958-1.991-2.378c-0.655-0.421-1.39-0.534-1.39-0.534H82.433c0,0-0.949-0.133-1.303,0.995
				c-0.321,1.022,0,1.644,0,1.644s0.31,0.606,1.483,1.924c0.755,0.848,2.158,1.102,2.158,1.102s0.949,0.07,2.111,1.002
				c1.004,0.805,0.922,1.744,0.922,1.744v17.03c0,1.721,1.4,3.117,3.127,3.117s3.127-1.395,3.127-3.117V43.03
				c0,0-0.075-0.656,0.872-1.603c0.947-0.947,1.914-0.992,1.914-0.992l2.445-0.01c0,0,4.56,18.57,4.931,19.642
				c0.371,1.072,0.722,1.583,2.024,2.616c1.303,1.032,3.287,0.942,3.287,0.942s1.984,0.09,3.287-0.942
				c1.303-1.032,1.654-1.543,2.024-2.616c0.371-1.072,4.931-19.642,4.931-19.642l0.902-2.946
				C120.674,37.478,121.176,36.376,120.955,35.214z"/>
			<linearGradient id="SVGID_13_" gradientUnits="userSpaceOnUse" x1="100.9985" y1="62.3434" x2="100.9985" y2="35.9016">
				<stop  offset="0" style="stop-color:#0280DD"/>
				<stop  offset="1" style="stop-color:#43B5EE"/>
			</linearGradient>
			<path opacity="0.2" fill="url(#SVGID_13_)" d="M109.529,62.342c-0.019,0-0.122,0.002-0.122,0.002
				c-0.704,0-1.746-0.174-2.367-0.666c-1.152-0.913-1.337-1.244-1.609-2.03c-0.268-0.788-3.076-12.111-4.897-19.529
				c-0.141-0.574-0.655-0.977-1.246-0.977c-0.002,0-2.487,0.011-2.505,0.011c-0.15,0.007-1.499,0.105-2.761,1.367
				c-1.156,1.156-1.263,2.14-1.248,2.543V60.06c0,1.011-0.827,1.834-1.844,1.834s-1.844-0.823-1.844-1.834V43.051
				c0.01-0.378-0.059-1.689-1.402-2.766c-1.248-1.001-2.357-1.222-2.713-1.269c-0.277-0.059-1.046-0.289-1.4-0.687
				c-0.834-0.937-1.183-1.468-1.28-1.624c-0.02-0.082-0.058-0.325,0.062-0.707c0.014-0.044,0.027-0.075,0.038-0.096
				c0.011,0,19.133-0.001,19.133-0.001c0.177,0.04,0.531,0.146,0.818,0.331c0.58,0.373,1.347,1.227,1.438,1.603
				c0.211,0.863,4.459,18.524,4.502,18.702c0.138,0.577,0.654,0.983,1.247,0.983c0.593,0,1.109-0.406,1.247-0.983
				c0.043-0.178,4.291-17.839,4.502-18.702c0.092-0.377,0.858-1.231,1.438-1.604c0.309-0.199,0.67-0.297,0.82-0.331h2.189
				c-0.014,0.463-0.154,0.893-0.224,1.054c-0.019,0.045-0.041,0.101-0.055,0.147l-0.902,2.946c-0.007,0.023-0.013,0.046-0.019,0.07
				c-1.821,7.418-4.629,18.74-4.897,19.529c-0.272,0.785-0.456,1.116-1.608,2.029c-0.621,0.492-1.663,0.666-2.367,0.666
				C109.654,62.343,109.548,62.342,109.529,62.342z"/>
			<linearGradient id="SVGID_14_" gradientUnits="userSpaceOnUse" x1="100.9618" y1="61.702" x2="100.9618" y2="36.543">
				<stop  offset="0.0739" style="stop-color:#0280DD"/>
				<stop  offset="0.2299" style="stop-color:#0582DD;stop-opacity:0.882"/>
				<stop  offset="0.3518" style="stop-color:#0F86DF;stop-opacity:0.79"/>
				<stop  offset="0.4621" style="stop-color:#208FE1;stop-opacity:0.7066"/>
				<stop  offset="0.5655" style="stop-color:#379BE4;stop-opacity:0.6284"/>
				<stop  offset="0.6643" style="stop-color:#55AAE8;stop-opacity:0.5538"/>
				<stop  offset="0.7594" style="stop-color:#7ABCED;stop-opacity:0.4818"/>
				<stop  offset="0.8518" style="stop-color:#A6D3F3;stop-opacity:0.4121"/>
				<stop  offset="0.9395" style="stop-color:#D8EBFA;stop-opacity:0.3457"/>
				<stop  offset="1" style="stop-color:#FFFFFF;stop-opacity:0.3"/>
			</linearGradient>
			<path opacity="0.2" fill="url(#SVGID_14_)" d="M109.396,61.702c-0.616,0-1.499-0.165-1.957-0.528
				c-1.102-0.873-1.184-1.109-1.401-1.737c-0.231-0.678-2.687-10.539-4.88-19.472c-0.212-0.863-0.98-1.465-1.869-1.465
				c-0.022,0-2.492,0.01-2.527,0.012c-0.295,0.014-1.792,0.154-3.192,1.554c-1.298,1.298-1.457,2.45-1.435,3.021l0,16.973
				c0,0.658-0.54,1.193-1.203,1.193s-1.203-0.535-1.203-1.193V43.051c0.012-0.434-0.07-2.005-1.643-3.266
				c-1.327-1.064-2.523-1.333-3.002-1.4c-0.323-0.072-0.848-0.275-1.033-0.482c-0.6-0.674-0.933-1.121-1.098-1.359
				c2.987,0,17.3,0,18.494,0c0.164,0.044,0.386,0.124,0.549,0.229c0.508,0.326,1.093,1.023,1.166,1.228
				c0.12,0.492,1.678,6.962,4.383,18.208l0.116,0.481c0.208,0.868,0.977,1.474,1.871,1.474c0.893,0,1.662-0.606,1.871-1.474
				l0.111-0.462c1.568-6.519,4.223-17.556,4.39-18.237c0.07-0.193,0.655-0.891,1.162-1.217c0.192-0.123,0.426-0.196,0.551-0.229
				h1.355c-0.023,0.072-0.043,0.127-0.056,0.156c-0.029,0.066-0.059,0.147-0.08,0.215l-0.902,2.948
				c-0.012,0.039-0.021,0.072-0.029,0.106c-2.193,8.932-4.649,18.793-4.881,19.474c-0.216,0.625-0.297,0.86-1.4,1.733
				c-0.457,0.362-1.338,0.527-1.965,0.528l-0.129-0.002L109.396,61.702z"/>
			<linearGradient id="SVGID_15_" gradientUnits="userSpaceOnUse" x1="101.1776" y1="61.0607" x2="101.1776" y2="37.1843">
				<stop  offset="0.0739" style="stop-color:#0280DD"/>
				<stop  offset="0.2299" style="stop-color:#0582DD;stop-opacity:0.882"/>
				<stop  offset="0.3518" style="stop-color:#0F86DF;stop-opacity:0.79"/>
				<stop  offset="0.4621" style="stop-color:#208FE1;stop-opacity:0.7066"/>
				<stop  offset="0.5655" style="stop-color:#379BE4;stop-opacity:0.6284"/>
				<stop  offset="0.6643" style="stop-color:#55AAE8;stop-opacity:0.5538"/>
				<stop  offset="0.7594" style="stop-color:#7ABCED;stop-opacity:0.4818"/>
				<stop  offset="0.8518" style="stop-color:#A6D3F3;stop-opacity:0.4121"/>
				<stop  offset="0.9395" style="stop-color:#D8EBFA;stop-opacity:0.3457"/>
				<stop  offset="1" style="stop-color:#FFFFFF;stop-opacity:0.3"/>
			</linearGradient>
			<path opacity="0.2" fill="url(#SVGID_15_)" d="M109.387,61.061c-0.59,0-1.274-0.171-1.55-0.389
				c-0.956-0.757-1.002-0.889-1.193-1.444c-0.194-0.569-2.33-9.098-4.863-19.415c-0.283-1.151-1.307-1.954-2.492-1.954
				c-0.022,0-2.498,0.01-2.55,0.012c-0.337,0.016-2.056,0.174-3.623,1.742c-1.471,1.47-1.648,2.822-1.623,3.498L91.492,60.06
				c0,0.304-0.252,0.551-0.561,0.551s-0.561-0.247-0.561-0.551V43.051c0.014-0.504-0.078-2.32-1.883-3.766
				c-1.433-1.149-2.755-1.452-3.285-1.531c-0.286-0.068-0.606-0.218-0.679-0.285c-0.089-0.1-0.172-0.195-0.249-0.284l17.082,0
				c0.115,0.036,0.227,0.084,0.293,0.127c0.355,0.228,0.792,0.726,0.907,0.909c0.22,0.906,1.91,7.93,4.366,18.137l0.116,0.481
				c0.278,1.157,1.303,1.965,2.494,1.965c1.191,0,2.217-0.809,2.494-1.966l0.111-0.462c2.732-11.357,4.165-17.308,4.372-18.162
				c0.111-0.171,0.538-0.668,0.903-0.903c0.07-0.045,0.177-0.091,0.294-0.127h0.375l-0.762,2.49
				c-0.016,0.054-0.028,0.098-0.039,0.142c-2.533,10.316-4.67,18.847-4.865,19.419c-0.19,0.549-0.235,0.68-1.191,1.437
				c-0.274,0.217-0.959,0.387-1.562,0.389l-0.123-0.002L109.387,61.061z"/>
			
				<linearGradient id="SVGID_16_" gradientUnits="userSpaceOnUse" x1="128.4194" y1="83.69" x2="128.4194" y2="73.7568" gradientTransform="matrix(0.9397 -0.342 0.342 0.9397 -83.4648 13.4968)">
				<stop  offset="0" style="stop-color:#FFFFFF;stop-opacity:0.3"/>
				<stop  offset="1" style="stop-color:#FFFFFF"/>
			</linearGradient>
			<path opacity="0.8" fill="url(#SVGID_16_)" d="M70.436,41.257c0.938,2.578-1.123,5.694-4.603,6.961
				c-3.48,1.267-7.062,0.204-8-2.374s1.123-5.694,4.603-6.961S69.498,38.679,70.436,41.257z"/>
			
				<linearGradient id="SVGID_17_" gradientUnits="userSpaceOnUse" x1="128.4194" y1="81.3589" x2="128.4194" y2="74.7967" gradientTransform="matrix(0.9397 -0.342 0.342 0.9397 -83.4648 13.4968)">
				<stop  offset="0" style="stop-color:#FFFFFF;stop-opacity:0.3"/>
				<stop  offset="1" style="stop-color:#FFFFFF"/>
			</linearGradient>
			<path fill="url(#SVGID_17_)" d="M69.233,41.008c0.62,1.703-1.259,3.95-4.196,5.019c-2.937,1.069-5.821,0.555-6.441-1.148
				c-0.62-1.703,1.259-3.95,4.196-5.019C65.729,38.792,68.613,39.305,69.233,41.008z"/>
			
				<linearGradient id="SVGID_18_" gradientUnits="userSpaceOnUse" x1="-135.3403" y1="384.829" x2="-135.3403" y2="377.3583" gradientTransform="matrix(-0.9397 0.342 -0.342 -0.9397 69.9483 455.2309)">
				<stop  offset="0" style="stop-color:#FFFFFF;stop-opacity:0.3"/>
				<stop  offset="1" style="stop-color:#FFFFFF"/>
			</linearGradient>
			<path opacity="0.8" fill="url(#SVGID_18_)" d="M61.466,52.767c-0.706-1.939,1.104-4.377,4.041-5.446
				c2.937-1.069,5.891-0.364,6.596,1.574c0.706,1.939-1.104,4.377-4.041,5.446S62.172,54.705,61.466,52.767z"/>
			<path fill="#FF6600" d="M65.204,51.391c-2.062,0-3.92-1.3-4.624-3.235c-0.448-1.232-0.389-2.566,0.166-3.758
				c0.555-1.191,1.54-2.094,2.772-2.543c0.541-0.197,1.105-0.297,1.676-0.297c2.062,0,3.92,1.3,4.624,3.235
				c0.448,1.232,0.389,2.566-0.166,3.757c-0.556,1.191-1.54,2.094-2.772,2.543C66.339,51.291,65.775,51.391,65.204,51.391z"/>
			
				<linearGradient id="SVGID_19_" gradientUnits="userSpaceOnUse" x1="234.4303" y1="623.7888" x2="234.4303" y2="615.9618" gradientTransform="matrix(0.5209 -0.1896 -0.1292 -0.355 24.3063 314.1041)">
				<stop  offset="0" style="stop-color:#FFFFFF;stop-opacity:0.1"/>
				<stop  offset="1" style="stop-color:#FFFFFF"/>
			</linearGradient>
			<path opacity="0.4" fill="url(#SVGID_19_)" d="M69.158,48.593c-0.279-0.767-1.766-0.93-3.321-0.365
				c-1.555,0.566-2.589,1.647-2.309,2.414c0.279,0.767,1.766,0.93,3.321,0.365C68.403,50.441,69.437,49.36,69.158,48.593z"/>
			
				<linearGradient id="SVGID_20_" gradientUnits="userSpaceOnUse" x1="-223.0453" y1="-109.6787" x2="-223.0453" y2="-118.4825" gradientTransform="matrix(-0.5644 0.2054 0.207 0.5688 -37.7968 155.1625)">
				<stop  offset="0" style="stop-color:#FFFFFF;stop-opacity:0.3"/>
				<stop  offset="1" style="stop-color:#FFFFFF"/>
			</linearGradient>
			<path opacity="0.8" fill="url(#SVGID_20_)" d="M61.045,45.706c0.503,1.383,2.443,1.946,4.333,1.258
				c1.89-0.688,3.013-2.366,2.51-3.749c-0.503-1.383-2.443-1.946-4.333-1.258C61.665,42.645,60.542,44.323,61.045,45.706z"/>
			<linearGradient id="SVGID_21_" gradientUnits="userSpaceOnUse" x1="153.1936" y1="63.9964" x2="153.1936" y2="33.9417">
				<stop  offset="0" style="stop-color:#0280DD"/>
				<stop  offset="1" style="stop-color:#43A2EE"/>
			</linearGradient>
			<path fill="url(#SVGID_21_)" d="M138.459,63.996c-0.451,0-0.818-0.383-0.818-0.854v-5.751c-2.454,2.034-4.06,3.216-4.9,3.605
				c-2.168,1.627-3.893,2.418-5.271,2.418c-0.147,0-0.293-0.009-0.433-0.027c-0.093-0.012-0.181-0.04-0.264-0.083
				c0.001,0,0.001,0.001,0,0.001c-0.007,0-0.127-0.031-0.444-0.031h-0.462c-0.218,0-0.424-0.089-0.578-0.25
				c-0.221-0.23-0.304-0.567-0.217-0.878c0.155-0.553,0.65-0.712,1.448-0.9c0.307-0.151,0.602-0.242,0.88-0.272
				c0.676-0.33,1.808-0.983,3.367-1.943c0.126-0.077,0.269-0.118,0.416-0.118c0.013,0,0.085-0.003,0.236-0.049
				c0.763-0.492,2.147-1.551,4.114-3.148c0.143-0.116,0.321-0.18,0.502-0.18h1.502c0.036,0,0.071,0.002,0.106,0.007v-2.882h-1.619
				c0.062,0.098,0.106,0.212,0.125,0.335c0.065,0.415-0.165,0.814-0.547,0.947h0c0.004,0-0.294,0.152-1.581,1.29
				c-0.645,0.589-1.07,0.951-1.333,1.136c-1.855,1.431-3.344,2.264-4.543,2.54c-0.142,0.044-0.332,0.065-0.598,0.065
				c-0.417,0-1.037-0.055-1.896-0.168c-0.307-0.041-0.571-0.264-0.671-0.57c-0.101-0.306-0.024-0.652,0.195-0.881
				c0.175-0.183,0.272-0.285,2.279-0.811c0.996-0.457,2.234-1.301,3.681-2.509c0.019-0.016,0.038-0.031,0.059-0.045
				c0.39-0.27,0.94-0.706,1.676-1.329h-5.96c-0.451,0-0.818-0.383-0.818-0.854v-0.844c0-0.471,0.367-0.854,0.818-0.854
				c17.702,0,17.71,0.001,17.719,0.001c0.159,0.009,0.311,0.014,0.456,0.014c1.122,0,1.515-0.276,1.65-0.44
				c0.067-0.082,0.148-0.149,0.239-0.2c0.029-0.023,0.156-0.136,0.436-0.502c0.156-0.204,0.389-0.321,0.639-0.321h0.923
				c-0.099-0.09-0.196-0.185-0.29-0.288c-0.704-0.459-1.562-1.201-2.615-2.262c-0.961,0.914-1.911,1.756-2.826,2.508
				c-0.694,0.52-1.631,0.813-2.874,0.904c-0.018,0.001-0.038,0.002-0.057,0.002h-0.482c-0.284,0.066-0.595,0.106-0.926,0.117
				c-0.15,0.227-0.398,0.365-0.672,0.365h-1.271c-0.451,0-0.818-0.383-0.818-0.854v-0.423c-0.502,0.078-1.059,0.142-1.662,0.189
				c-0.602,0.08-3.479,0.317-8.781,0.724c-0.021,0.002-0.04,0.002-0.06,0.002c-0.207,0-0.405-0.081-0.557-0.229
				c-0.166-0.161-0.261-0.389-0.261-0.625v-1.086c0-0.471,0.367-0.854,0.818-0.854c0.366,0,0.751-0.015,1.146-0.045V37.58h-1.146
				c-0.451,0-0.818-0.383-0.818-0.854v-0.965c0-0.471,0.367-0.854,0.818-0.854h13.862c0.451,0,0.818,0.383,0.818,0.854v0.48
				c0.035-0.005,0.07-0.007,0.106-0.007h9.226c0.103-0.006,0.216-0.01,0.325-0.01c2.257,0,2.462,1.55,2.472,2.025
				c0.09,0.775-0.232,1.645-0.988,2.63c-0.019,0.025-0.039,0.048-0.06,0.07c-0.557,0.582-1.652,1.661-3.342,3.295
				c0.18,0.17,0.367,0.323,0.559,0.455c0.026,0.018,0.05,0.037,0.073,0.057c0.601,0.525,0.752,0.608,0.758,0.611
				c0.162,0.082,0.295,0.221,0.375,0.391c0,0,0,0,0,0c0.002,0,0.048,0.056,0.18,0.148c0.036,0.025,0.07,0.053,0.103,0.084
				c1.215,1.173,1.627,1.219,1.644,1.221c0,0,0,0,0.001,0c0.157,0,0.314,0.05,0.449,0.144c0.338,0.236,0.49,0.242,0.506,0.242
				c0.061-0.016,0.128-0.024,0.195-0.024c0.181,0,0.36,0.064,0.503,0.18c0.2,0.163,0.315,0.409,0.315,0.674
				c0,0.492-0.306,0.846-0.91,1.053c-0.082,0.028-0.168,0.043-0.255,0.043h-0.274c-0.286,0.052-0.567,0.078-0.835,0.078
				c-0.336,0-0.657-0.039-0.962-0.118c0.008,0.233-0.075,0.463-0.24,0.635l-0.998,1.042c-0.732,1.002-2,1.51-3.768,1.51
				c-0.152,0-0.309-0.004-0.47-0.011l-4.46,0.001v1.548h0.915c0.239,0,0.466,0.109,0.621,0.299c0.342,0.418,0.712,0.79,1.1,1.107
				l0.419-0.062c0.458-0.137,0.798-0.243,1.011-0.315c0.421-0.226,0.991-0.601,1.694-1.115c0.035-0.025,0.07-0.047,0.107-0.066
				c0.049-0.025,0.131-0.08,0.246-0.2c0.022-0.023,0.045-0.045,0.069-0.065c0.363-0.302,0.917-0.805,1.695-1.535
				c0.15-0.141,0.345-0.219,0.547-0.219h1.617c0.362,0,0.677,0.243,0.782,0.605c0.106,0.362-0.026,0.747-0.326,0.958
				c-0.09,0.063-0.43,0.335-1.637,1.489c-0.471,0.413-0.771,0.685-0.898,0.819c-0.031,0.033-0.066,0.063-0.102,0.091
				c-1.176,0.876-2.098,1.393-2.82,1.581c-0.065,0.017-0.132,0.025-0.198,0.025h-0.217c0.573,0.51,1.139,0.963,1.688,1.353
				c0.12,0.034,0.251,0.088,0.397,0.165c0.03,0.016,0.06,0.034,0.088,0.053c1.301,0.906,2.381,1.475,3.21,1.691
				c0.019,0.005,0.038,0.011,0.057,0.017c0.23,0.079,0.957,0.319,2.184,0.72c0.369,0.121,0.609,0.5,0.569,0.903
				c-0.04,0.402-0.348,0.723-0.733,0.762c-0.779,0.08-1.388,0.121-1.859,0.125l-0.628,0.109c-0.044,0.008-0.089,0.012-0.135,0.012
				c-0.089,0-0.177-0.015-0.261-0.044c-0.144-0.051-0.328-0.076-0.548-0.076c-0.034,0-0.068-0.002-0.102-0.007
				c-0.751-0.099-1.46-0.393-2.107-0.876c-1.615-1.172-3.782-3.149-6.446-5.879v6.511c0,0.471-0.367,0.854-0.818,0.854H138.459z
				 M139.046,47.725c0.986-0.36,1.866-0.84,2.619-1.429c0.04-0.031,0.083-0.059,0.128-0.082c0,0,0,0,0,0
				c-0.002,0,0.159-0.109,0.709-0.683c0.018-0.019,0.036-0.036,0.055-0.053c0.524-0.455,1.019-0.889,1.466-1.283
				c-0.952-0.878-1.962-1.842-3.005-2.867c-0.246-0.241-0.324-0.609-0.199-0.937c0.124-0.328,0.423-0.539,0.76-0.539h1.386
				c0.313,0,0.593,0.182,0.733,0.474c0.011,0.014,0.278,0.384,2.353,2.053c2.31-2.113,3.112-3.101,3.375-3.56
				c0.003-0.006,0.006-0.011,0.01-0.017c-0.023-0.006-0.048-0.011-0.075-0.017h-8.937c-0.451,0-0.818-0.383-0.818-0.854v-0.359
				c-0.035,0.005-0.07,0.007-0.106,0.007h-0.453v7.32l0.114-0.08c0.135-0.094,0.292-0.143,0.454-0.143
				c0.211,0,0.411,0.084,0.564,0.236c0.279,0.277,0.336,0.712,0.138,1.057c-0.242,0.423-0.459,0.708-0.679,0.891
				c-0.176,0.275-0.374,0.508-0.591,0.694V47.725z M129.689,46.569c3.428-0.158,4.255-0.243,4.454-0.275
				c0.088-0.033,0.18-0.049,0.273-0.049c0.674,0,1.252-0.033,1.723-0.097v-0.969h-6.45V46.569z M136.14,42.627v-1.307h-6.45v1.307
				H136.14z M136.14,38.767V37.58h-6.45v1.187H136.14z M155.787,63.635c-0.381,0-0.708-0.27-0.796-0.658
				c-0.088-0.387,0.089-0.782,0.429-0.96c1.142-0.598,2.348-1.553,3.583-2.838c2.478-3.131,3.967-6.548,4.405-10.137l0.799-6.155
				h-6.919c-0.451,0-0.818-0.383-0.818-0.854v-0.965c0-0.471,0.367-0.854,0.818-0.854h7.256l0.713-5.532
				c0.054-0.422,0.403-0.74,0.811-0.74h1.155c0.233,0,0.456,0.104,0.611,0.286c0.155,0.182,0.229,0.424,0.202,0.666l-0.588,5.32
				h8.901c0.07-0.002,0.16-0.003,0.249-0.003c1.757,0,3.074,0.472,3.916,1.402c0.775,0.857,1.126,2.07,1.042,3.605l-0.346,13.123
				c-0.126,2.3-1.229,5.056-5.765,5.173c-0.146,0.004-0.289,0.005-0.431,0.005c-3.253,0-5.728-0.948-7.356-2.818
				c-0.258-0.296-0.283-0.747-0.06-1.073c0.153-0.223,0.402-0.356,0.665-0.356c0.113,0,0.224,0.024,0.327,0.072
				c1.167,0.532,2.156,0.878,2.939,1.028c0.029,0.006,0.058,0.013,0.087,0.022c0.69,0.216,1.932,0.326,3.693,0.326
				c1.949,0,2.873-0.797,2.996-2.585l0.345-12.749c0.06-0.946-0.084-1.614-0.427-1.996c-0.308-0.344-0.837-0.518-1.573-0.518
				c-0.117,0-0.238,0.004-0.363,0.013c-0.018,0.001-0.036,0.002-0.054,0.002h-9.105l-0.828,6.377
				c-0.476,4.148-2.202,8.02-5.129,11.505C159.938,62.671,158.126,63.635,155.787,63.635z"/>
		</g>
		<rect fill="none" width="200" height="100"/>
	</g>
</g>
<g id="图层_2">
</g>
<g id="图层_3">
	<g>
	</g>
	<g>
	</g>
	<g>
	</g>
	<g>
	</g>
	<g>
	</g>
	<g>
	</g>
</g>
</svg>
