<?xml version="1.0" encoding="utf-8"?>
<!-- Generator: Adobe Illustrator 17.0.0, SVG Export Plug-In . SVG Version: 6.00 Build 0)  -->
<!DOCTYPE svg PUBLIC "-//W3C//DTD SVG 1.1//EN" "http://www.w3.org/Graphics/SVG/1.1/DTD/svg11.dtd">
<svg version="1.1" xmlns="http://www.w3.org/2000/svg" xmlns:xlink="http://www.w3.org/1999/xlink" x="0px" y="0px" width="200px"
	 height="100px" viewBox="0 0 200 100" enable-background="new 0 0 200 100" xml:space="preserve">
<g id="图层_1">
	<rect fill="none" width="200" height="100"/>
	<g>
		<linearGradient id="SVGID_1_" gradientUnits="userSpaceOnUse" x1="133.8362" y1="65.6671" x2="133.8362" y2="34.2303">
			<stop  offset="0" style="stop-color:#64A142"/>
			<stop  offset="1" style="stop-color:#70B236"/>
		</linearGradient>
		<path fill="url(#SVGID_1_)" d="M135.614,40.418c0.165,0,0.319,0,0.489,0.043c3.892,0.776,7.57,1.615,11.003,3.376
			c0.219,0.12,0.439,0.275,0.602,0.446c0.245,0.239,0.387,0.533,0.459,0.854c0.055,0.246,0.055,0.614-0.058,0.888
			c-0.224,0.587-0.768,0.808-1.313,0.808c-0.256,0-0.543-0.057-0.827-0.192c-2.415-1.329-5.87-2.112-10.46-3.208
			c-1.242-0.347-1.506-1.201-1.355-1.87C134.294,40.914,134.887,40.418,135.614,40.418 M120.258,46.668
			c7.198-0.416,11.775-2.669,13.648-6.673h11.871c0.495,0,1.314-0.198,1.314-1.553c0-1.235-0.819-1.427-1.314-1.427h-11.171
			c0.09-0.608,0.133-0.975,0.148-1.406c0.02-0.529-0.29-1.11-0.828-1.278c-0.628-0.206-1.519-0.112-1.934,0.439
			c-0.128,0.177-0.262,0.415-0.306,0.621c0,0-0.189,1.066-0.269,1.539c-0.028,0.036-0.042,0.064-0.069,0.085h-9.973
			c-1.002,0-1.551,0.508-1.551,1.427c0,1.01,0.549,1.553,1.551,1.553h9.025c-0.06,0-0.225,0.261-0.275,0.31
			c-0.084,0.099-0.177,0.199-0.267,0.304c-0.205,0.192-0.404,0.396-0.616,0.573c-0.465,0.395-0.987,0.727-1.54,1.001
			c-0.662,0.312-1.34,0.536-2.04,0.743c-0.84,0.207-1.695,0.36-2.535,0.474c-0.96,0.14-1.907,0.205-2.89,0.295
			c-0.664,0.071-1.334,0.468-1.512,1.137c-0.162,0.567,0,1.266,0.545,1.577C119.554,46.571,119.928,46.668,120.258,46.668
			 M180.195,56.669c-0.778,0-1.391,0.603-1.532,1.329c-0.049,0.248-0.057,0.493-0.057,0.734c0.048,1.28,0,2.368-0.521,2.891
			c-0.567,0.585-1.379,0.423-2.317,0.435h-11.683c-5.242,0-4.985-0.86-5.015-1.242c-0.071-0.487,3.115-2.477,15.906-10.904
			c0.868-0.511,1.454-0.891,1.794-1.144c1.073-0.841,1.058-1.68,0.841-2.254c-0.391-0.791-1.164-1.164-2.289-1.164h-19.324
			c-1.448,0-1.673,0.891-1.673,1.454c0.084,0.631,0.444,1.398,1.807,1.398h15.893c-6.803,4.275-13.359,7.79-15.631,10.466
			c0,0-1.5,1.64-0.826,3.39c0.373,0.926,1.18,1.682,2.598,2.227c1.631,0.602,4.442,0.889,8.412,0.889h9.654
			c2.495,0,3.328-0.421,4.139-1.291c1.038-1.073,1.491-2.867,1.336-5.319c-0.05-0.749-0.332-1.456-1.046-1.787
			C180.521,56.691,180.35,56.669,180.195,56.669 M113.692,62.3c0.897,0.098,1.404,0.647,1.404,1.552
			c-0.113,0.933-0.656,1.443-1.561,1.443c-4.342-0.347-8.533-1.426-12.428-3.237c-0.028-0.012-0.214,0.116-0.242,0.123
			c-0.656,0.365-1.336,0.704-2.033,1.008c-0.749,0.324-1.511,0.602-2.289,0.839c-1.765,0.559-3.547,0.956-5.36,1.28
			c-0.917,0.185-2.733,0.334-2.98,0.334c-1.117-0.086-1.872-1.208-1.252-2.241c0.349-0.55,0.892-0.79,1.519-0.84
			c3.596-0.163,6.731-0.807,9.338-1.899c-1.73-1.137-3.291-2.536-4.648-4.125c0.03,0.029-0.577,0.735-0.656,0.79
			c-0.233,0.27-0.444,0.522-0.699,0.779c-0.863,0.89-1.823,1.736-2.84,2.436c-0.981,0.657-2.054,1.605-3.312,1.605
			c-0.601,0-1.06-0.199-1.406-0.618l-0.02-0.018l-0.006-0.013c-0.502-0.899-0.235-1.711,0.732-2.305
			c3.757-1.919,6.645-4.97,8.617-9.126h-4.943c-1.018-0.106-1.549-0.649-1.549-1.565c0,0,0-0.016,0-0.037
			c-0.167,0.065-0.366,0.099-0.598,0.099c-0.987,0-1.547-0.559-1.547-1.567v-2.5c0-2.127,1.26-2.579,2.317-2.579h3.518
			c-0.133-0.21-0.297-0.451-0.502-0.789c-0.338-0.553-0.891-0.956-1.144-1.583c-0.073-0.135-0.093-0.276-0.113-0.459
			c0,0,0.007-0.332,0.034-0.332c-0.686-0.028-1.172-0.07-1.47-0.132c-1.348-0.149-1.644-0.92-1.644-1.549
			c0.085-0.628,0.445-1.312,1.822-1.312c2.232,0.127,4.422,0.168,6.546,0.168c5.927,0,11.527-0.439,16.684-1.298
			c0.113,0,0.205-0.016,0.278-0.016c0.251,0,0.55,0.071,0.775,0.171c0.453,0.19,0.723,0.636,0.791,1.101
			c0.064,0.474-0.169,1.067-0.571,1.341c-0.338,0.233-0.784,0.326-1.159,0.395c-0.782,0.157-1.271,0.163-2.09,0.241
			c0.09,0.084,0.141,0.183,0.197,0.288c0.119,0.249,0.141,0.537,0.093,0.808c-0.093,0.521-0.318,1.036-0.53,1.524
			c-0.204,0.487-0.428,0.989-0.712,1.433h3.73h0.134c0.761,0,1.335,0.253,1.673,0.758c0.649,0.91,0.832,2.576,0.034,5.175
			c-0.367,0.869-0.953,1.058-1.386,1.058c-0.182,0-0.394-0.042-0.612-0.121c-0.021,0-0.093-0.048-0.134-0.069
			c-0.056,0.558-0.396,1.227-1.631,1.347H97.026c-0.172,0.574-0.382,1.077-0.604,1.542h10.46c0.97,0,1.625,0.268,1.956,0.79
			c0.396,0.607,0.285,1.542-0.316,2.775c-0.955,1.852-2.416,3.527-4.336,4.973C106.804,61.346,110.012,62.058,113.692,62.3
			 M106.7,38.074c-1.937,0.211-4.238,0.368-6.902,0.517c0.43,0.861,0.89,1.97,1.371,3.325h3.185c0.925-0.96,1.639-2.119,2.106-3.445
			v-0.015l0.02-0.03C106.552,38.312,106.607,38.187,106.7,38.074 M98.436,45.039c0.016,0.344-0.065,0.931-0.36,2.033h11.63
			c0.411,0,0.737,0.084,0.99,0.199c0.014-0.158,0.192-1.384,0.157-1.908c-0.018-0.352-0.327-0.323-0.558-0.323H98.436
			 M92.157,38.752c0.529,0.629,0.99,1.327,1.386,2.065c0.219,0.36,0.26,0.726,0.125,1.099h4.374
			c-0.215-0.537-0.537-1.278-0.99-2.189c-0.163-0.262-0.247-0.601-0.192-0.975H92.157z M94.729,47.072
			c0.245-0.594,0.445-1.271,0.593-2.033h-6.726c-0.152,0-0.435-0.029-0.585,0.16c-0.231,0.276-0.092,1.795-0.092,1.795
			c0,0.086,0,0.246,0,0.246c0.234-0.105,0.509-0.169,0.841-0.169H94.729 M100.815,58.852c3.588-2.388,4.187-3.453,4.218-3.89
			c0.022-0.087-0.006-0.17-0.051-0.242h-9.229C96.939,56.289,98.641,57.68,100.815,58.852 M147.669,47.338h-27.431
			c-0.973,0-1.573,0.488-1.673,1.38c-0.055,0.445,0.036,0.817,0.263,1.079c0.239,0.297,0.613,0.465,1.157,0.524h21.35v11.385
			c-0.014,0.24-0.057,1.017-2.041,1.017c-0.946,0-2.224-0.113-3.787-0.424c-0.169-0.035-0.332-0.049-0.487-0.049
			c-0.643,0.022-1.101,0.374-1.356,1.054c-0.142,0.527-0.104,0.966,0.1,1.271c0.177,0.311,0.486,0.493,0.932,0.598
			c1.913,0.368,3.496,0.494,4.832,0.494c3.056,0,4.661-1.107,4.78-3.318V50.322h3.503c0.919-0.099,1.406-0.651,1.406-1.597
			C149.119,47.826,148.567,47.338,147.669,47.338 M183.7,39.028c-0.128-1.215-0.871-1.406-1.301-1.406h-7.063v-2.067
			c0-0.495-0.177-1.302-1.414-1.302c-1.333,0-1.552,0.807-1.552,1.302v2.067h-7.848v-2.067c0-0.495-0.181-1.302-1.432-1.302
			c-1.35,0-1.526,0.807-1.526,1.302v2.067h-7.606c-0.495,0-1.309,0.204-1.309,1.435c0,1.244,0.813,1.426,1.309,1.426h7.606v2.96
			c0,0.44,0.161,1.185,1.399,1.185c1.256,0,1.431-0.745,1.431-1.185v-2.96h7.975v2.96c0,0.44,0.198,1.185,1.434,1.185
			c1.228,0,1.419-0.745,1.419-1.185v-2.96h7.176c0.43,0,1.172-0.177,1.301-1.398 M138.298,52.658
			c0.277,0.305,0.438,0.706,0.486,1.186v5.333c-0.048,0.494-0.209,0.89-0.486,1.193c-0.326,0.317-0.791,0.503-1.378,0.564h-13.73
			c-0.593-0.062-1.045-0.247-1.355-0.564c-0.285-0.304-0.446-0.699-0.494-1.193v-5.333c0.048-0.48,0.21-0.881,0.494-1.186
			c0.31-0.345,0.762-0.509,1.355-0.579h13.73C137.507,52.15,137.973,52.313,138.298,52.658 M135.806,55.512
			c0-0.502-0.205-0.711-0.706-0.711h-10.065c-0.517,0-0.722,0.21-0.722,0.711v2.005c0,0.503,0.205,0.715,0.722,0.715H135.1
			c0.501,0,0.706-0.212,0.706-0.715V55.512z"/>
		<linearGradient id="SVGID_2_" gradientUnits="userSpaceOnUse" x1="46.0969" y1="74.0767" x2="46.0969" y2="25.9233">
			<stop  offset="0" style="stop-color:#64A142"/>
			<stop  offset="1" style="stop-color:#70B236"/>
		</linearGradient>
		<path fill="url(#SVGID_2_)" d="M75.893,61.965c0,0.262-0.198,0.466-0.458,0.466h-4.623c-0.249,0-0.459-0.203-0.459-0.466V37.938
			c0-0.261,0.211-0.464,0.459-0.464h4.623c0.26,0,0.458,0.203,0.458,0.464V61.965z M39.932,62.464c0,0,0.465-0.054,0.465,0.478
			v1.745c0,0.245-0.192,0.455-0.465,0.455h-2.558c-1.286-0.013-1.991-0.233-2.569-0.716c-0.38-0.419-0.545-0.725-0.608-1.343
			c-0.515,0.06-1.066,0.113-1.627,0.113c-3.872,0-7.033-1.878-7.033-4.176V40.939c0-2.305,3.161-4.17,7.033-4.17
			c3.892,0,7.05,1.866,7.05,4.17v18.083c0,1.344-1.072,2.534-2.727,3.294c0.058,0.138,0.346,0.149,0.863,0.149H39.932 M32.587,60.36
			c0.863,0,1.554-0.522,1.554-1.153V40.939c0-0.637-0.692-1.153-1.554-1.153c-0.868,0-1.554,0.516-1.554,1.153v18.269
			C31.033,59.839,31.719,60.36,32.587,60.36 M21.396,37.474h-4.629c-0.243,0-0.466,0.203-0.466,0.464v4.61
			c0,0.268,0.212,0.471,0.466,0.471h4.629c0.256,0,0.46-0.203,0.46-0.471v-4.61C21.856,37.677,21.652,37.474,21.396,37.474
			 M48.419,37.508h-4.63c-0.243,0-0.454,0.202-0.454,0.464V62c0,0.267,0.21,0.465,0.454,0.465h4.63c0.248,0,0.453-0.197,0.453-0.465
			V37.971C48.872,37.71,48.668,37.508,48.419,37.508 M21.396,45.617h-4.629c-0.243,0-0.466,0.205-0.466,0.467v15.881
			c0,0.262,0.223,0.466,0.466,0.466h4.629c0.256,0,0.46-0.203,0.46-0.466V46.084C21.856,45.822,21.652,45.617,21.396,45.617
			 M68.242,38.091c0.019-0.051,0.03-0.097,0.03-0.153c0-0.239-0.273-0.43-0.516-0.459l-4.645-0.005
			c-0.353,0-0.461,0.294-0.461,0.294l-3.029,7.81l-3.045-7.826c-0.075-0.167-0.229-0.278-0.427-0.278l-4.894,0.005
			c-0.227,0.029-0.331,0.22-0.331,0.459c0,0.056,0.03,0.153,0.03,0.153l5.791,14.965v8.899v0.01c0,0.262,0.211,0.466,0.459,0.466
			h1.975h0.658h2.137c0.262,0,0.47-0.203,0.47-0.466v-0.01v-8.899L68.242,38.091z M75.876,35.125
			c-0.09-1.272-0.436-2.962-1.246-4.106c-0.823-1.17-1.617-1.738-2.747-2.258c-3.302-1.51-13.596-2.837-25.773-2.837h-0.006l0,0
			c-12.179,0-22.486,1.327-25.787,2.837c-1.129,0.52-1.917,1.088-2.745,2.258c-0.818,1.144-1.164,2.834-1.254,4.106
			c-0.005,0.147,0.067,0.429,0.34,0.429l4.882-0.006c0.314,0,0.348-0.231,0.41-0.406c0.188-0.573,0.64-1.442,1.173-1.912
			c0.897-0.824,1.522-1.045,2.765-1.227c5.093-0.735,13.209-1.144,20.216-1.144c6.999,0,15.121,0.409,20.199,1.144
			c1.251,0.182,1.871,0.402,2.773,1.227c0.537,0.47,0.986,1.339,1.174,1.912c0.068,0.175,0.101,0.406,0.413,0.406l4.88,0.006
			C75.832,35.554,75.888,35.272,75.876,35.125 M75.876,64.893c0.011-0.177-0.044-0.455-0.332-0.455l-4.88,0.012
			c-0.313,0-0.345,0.249-0.413,0.404c-0.189,0.572-0.637,1.451-1.174,1.927c-0.902,0.801-1.522,1.028-2.773,1.213
			c-5.078,0.734-13.2,1.141-20.199,1.141c-7.007,0-15.123-0.408-20.216-1.141c-1.243-0.185-1.867-0.412-2.765-1.213
			c-0.532-0.475-0.985-1.354-1.173-1.927c-0.062-0.155-0.096-0.404-0.41-0.404l-4.882-0.012c-0.273,0-0.345,0.278-0.34,0.455
			c0.09,1.246,0.436,2.937,1.254,4.083c0.828,1.181,1.615,1.747,2.745,2.252c3.302,1.51,13.608,2.849,25.787,2.849l0,0h0.006
			c12.178,0,22.471-1.339,25.773-2.849c1.129-0.505,1.923-1.071,2.747-2.252C75.44,67.836,75.786,66.139,75.876,64.893"/>
	</g>
</g>
<g id="图层_2">
</g>
<g id="图层_3">
	<g>
	</g>
	<g>
	</g>
	<g>
	</g>
	<g>
	</g>
	<g>
	</g>
	<g>
	</g>
</g>
</svg>
