<?xml version="1.0" encoding="utf-8"?>
<!-- Generator: Adobe Illustrator 17.0.0, SVG Export Plug-In . SVG Version: 6.00 Build 0)  -->
<!DOCTYPE svg PUBLIC "-//W3C//DTD SVG 1.1//EN" "http://www.w3.org/Graphics/SVG/1.1/DTD/svg11.dtd">
<svg version="1.1" xmlns="http://www.w3.org/2000/svg" xmlns:xlink="http://www.w3.org/1999/xlink" x="0px" y="0px" width="200px"
	 height="100px" viewBox="0 0 200 100" enable-background="new 0 0 200 100" xml:space="preserve">
<g id="图层_1">
	<g>
		<path fill="#FF5900" d="M40.082,25.728c-13.404,0-24.271,10.867-24.271,24.272c0,13.404,10.867,24.272,24.271,24.272
			c13.405,0,24.272-10.868,24.272-24.272C64.354,36.595,53.487,25.728,40.082,25.728z M40.082,69.701
			c-10.88,0-19.7-8.821-19.7-19.701s8.82-19.7,19.7-19.7c10.88,0,19.701,8.82,19.701,19.7S50.962,69.701,40.082,69.701z
			 M30.735,42.355c-3.09,0-5.604,2.344-5.934,5.347c1.471-0.825,3.58-1.347,5.934-1.347c2.353,0,4.464,0.522,5.935,1.347
			C36.341,44.699,33.826,42.355,30.735,42.355z M49.429,42.355c-3.09,0-5.604,2.344-5.934,5.347c1.471-0.825,3.58-1.347,5.934-1.347
			c2.353,0,4.464,0.522,5.935,1.347C55.034,44.699,52.519,42.355,49.429,42.355z M31.376,54.83c0.718-0.281,1.229-0.98,1.229-1.796
			c0-1.062-0.864-1.926-1.927-1.926c-0.717,0-1.364,0.4-1.694,1.024c-0.33-0.624-0.977-1.024-1.694-1.024
			c-1.062,0-1.927,0.864-1.927,1.926c0,0.816,0.511,1.515,1.229,1.796c-0.718,0.281-1.229,0.98-1.229,1.796
			c0,1.062,0.864,1.926,1.927,1.926c0.717,0,1.364-0.401,1.694-1.024c0.33,0.624,0.977,1.024,1.694,1.024
			c1.062,0,1.927-0.863,1.927-1.926C32.605,55.809,32.094,55.11,31.376,54.83z M28.985,56.335c-0.83,0-1.505-0.675-1.505-1.505
			c0-0.829,0.675-1.504,1.505-1.504s1.504,0.675,1.504,1.504C30.489,55.66,29.815,56.335,28.985,56.335z"/>
		<path d="M70.826,56.265c-0.681,0-1.236-0.554-1.236-1.236c0-0.681,0.554-1.236,1.236-1.236h9.988c0.455,0,0.824-0.369,0.824-0.824
			V39.378c0-0.455-0.369-0.824-0.824-0.824h-8.341c-0.681,0-1.236-0.554-1.236-1.236c0-0.681,0.554-1.236,1.236-1.236h8.341
			c0.455,0,0.824-0.369,0.824-0.824v-2.471c0-0.681,0.554-1.236,1.236-1.236h0.618c0.681,0,1.236,0.554,1.236,1.236v2.471
			c0,0.455,0.369,0.824,0.824,0.824h8.34c0.681,0,1.236,0.554,1.236,1.236c0,0.681-0.554,1.236-1.236,1.236h-8.34
			c-0.455,0-0.824,0.369-0.824,0.824V52.97c0,0.455,0.369,0.824,0.824,0.824h9.988c0.681,0,1.236,0.554,1.236,1.236
			c0,0.681-0.554,1.236-1.236,1.236H70.826z M124.37,38.966c0-0.91-0.738-1.647-1.647-1.647h-19.77c-0.91,0-1.648,0.738-1.648,1.647
			v7.414c0,0.91,0.738,1.647,1.648,1.647h19.77c0.91,0,1.647-0.738,1.647-1.647V38.966z M121.075,43.497
			c0,1.137-0.922,2.059-2.059,2.059H106.66c-1.137,0-2.059-0.922-2.059-2.059v-1.648c0-1.137,0.922-2.059,2.059-2.059h12.356
			c1.137,0,2.059,0.922,2.059,2.059V43.497z M126.636,55.029c0,0.682-0.553,1.236-1.236,1.236h-25.124
			c-0.682,0-1.236-0.553-1.236-1.236s0.553-1.236,1.236-1.236h4.201l-1.112-3.707c0-0.227,0.184-0.412,0.412-0.412h3.707
			c0.185,0,1.841,3.002,2.603,4.119h5.503c0.762-1.116,2.418-4.119,2.603-4.119h3.707c0.227,0,0.412,0.184,0.412,0.412l-1.112,3.707
			h4.201C126.082,53.794,126.636,54.347,126.636,55.029z M125.812,33.2c0,0.682-0.553,1.236-1.236,1.236h-23.477
			c-0.682,0-1.236-0.553-1.236-1.236l0,0c0-0.682,0.553-1.236,1.236-1.236h23.477C125.259,31.964,125.812,32.518,125.812,33.2
			L125.812,33.2z M132.219,49.567v4.641c0.036,0.144,0.149,0.258,0.293,0.293h2.564v0.779l-2.467-0.001
			c-0.645,0-1.169-0.523-1.169-1.169c0-0.031,0.001-0.062,0.004-0.093h-0.004v-4.451v-0.779v-2.042h0.779v2.042h2.857v0.779H132.219
			z M140.92,48.788v3.62h-0.001c0,0.005,0.001,0.011,0.001,0.016c0,1.146-0.932,2.078-2.078,2.078c-1.146,0-2.078-0.932-2.078-2.078
			c0-0.005,0.001-0.011,0.001-0.016h-0.001v-3.62h-0.779v3.636c0,1.578,1.279,2.857,2.857,2.857c1.578,0,2.857-1.279,2.857-2.857
			v-3.636H140.92z M161.957,48.788v3.62h-0.001c0,0.005,0.001,0.011,0.001,0.016c0,1.146-0.932,2.078-2.078,2.078
			c-1.146,0-2.078-0.932-2.078-2.078c0-0.005,0.001-0.011,0.001-0.016h-0.001v-3.62h-0.779v3.636c0,1.578,1.279,2.857,2.857,2.857
			c1.578,0,2.857-1.279,2.857-2.857v-3.636H161.957z M185.916,48.788c-0.909,0-1.524,0.425-1.883,1.086
			c-0.359-0.661-0.974-1.086-1.883-1.086c-1.578,0-2.273,1.279-2.273,2.857v3.636h0.779v-3.62h0.001
			c0-0.005-0.001-0.011-0.001-0.016c0-1.146,0.348-2.078,1.493-2.078c1.146,0,1.493,0.932,1.493,2.078
			c0,0.005-0.001,0.011-0.001,0.016h0.001v3.62h0.779v-3.62h0.001c0-0.005-0.001-0.011-0.001-0.016c0-1.146,0.348-2.078,1.493-2.078
			s1.493,0.932,1.493,2.078c0,0.005-0.001,0.011-0.001,0.016h0.001v3.62h0.779v-3.636C188.189,50.067,187.494,48.788,185.916,48.788
			z M156.39,52.034c0,1.793-1.453,3.246-3.246,3.246c-1.793,0-3.246-1.454-3.246-3.246c0-1.793,1.453-3.246,3.246-3.246
			C154.936,48.788,156.39,50.241,156.39,52.034z M155.61,52.034c0-1.36-1.107-2.467-2.467-2.467c-1.36,0-2.467,1.107-2.467,2.467
			s1.107,2.467,2.467,2.467C154.504,54.502,155.61,53.395,155.61,52.034z M178.985,52.034c0,1.793-1.453,3.246-3.246,3.246
			c-1.793,0-3.246-1.454-3.246-3.246c0-1.793,1.453-3.246,3.246-3.246C177.532,48.788,178.985,50.241,178.985,52.034z
			 M178.206,52.034c0-1.36-1.107-2.467-2.467-2.467c-1.36,0-2.467,1.107-2.467,2.467s1.107,2.467,2.467,2.467
			C177.099,54.502,178.206,53.395,178.206,52.034z M148.988,46.71v5.324c0,1.793-1.453,3.246-3.246,3.246
			c-1.793,0-3.246-1.454-3.246-3.246c0-1.793,1.453-3.246,3.246-3.246c0.988,0,1.872,0.442,2.467,1.138V46.71H148.988z
			 M148.208,52.034c0-1.36-1.107-2.467-2.467-2.467c-1.36,0-2.467,1.107-2.467,2.467s1.107,2.467,2.467,2.467
			C147.102,54.502,148.208,53.395,148.208,52.034z M164.684,54.632c0-0.358-0.291-0.649-0.649-0.649s-0.649,0.291-0.649,0.649
			s0.291,0.649,0.649,0.649S164.684,54.99,164.684,54.632z M170.82,53.333c-0.436,0.7-1.21,1.169-2.094,1.169
			c-1.36,0-2.467-1.107-2.467-2.467s1.107-2.467,2.467-2.467c0.884,0,1.658,0.469,2.094,1.169h0.882
			c-0.501-1.146-1.644-1.948-2.976-1.948c-1.793,0-3.246,1.454-3.246,3.246c0,1.793,1.454,3.246,3.246,3.246
			c1.331,0,2.475-0.801,2.976-1.948H170.82z M69.266,64.842c0.901-0.746,1.607-1.617,2.118-2.612h0.822
			c-0.143,0.275-0.294,0.539-0.452,0.791h6.36v0.64h-6.789c-0.475,0.658-1.009,1.235-1.602,1.733
			C69.595,65.221,69.443,65.037,69.266,64.842z M69.303,66.717h1.342l0.411-2.222h6.035c-0.034,0.794-0.065,1.534-0.096,2.222h1.329
			v0.64h-1.356c-0.027,0.581-0.053,1.12-0.078,1.617h1.105v0.622H76.84c-0.061,0.432-0.184,0.746-0.37,0.942
			c-0.237,0.255-0.651,0.382-1.242,0.382c-0.341,0-0.776-0.012-1.306-0.036c-0.03-0.201-0.076-0.441-0.137-0.72
			c0.627,0.053,1.077,0.08,1.351,0.08c0.383,0,0.636-0.071,0.758-0.213c0.082-0.083,0.145-0.228,0.187-0.435h-5.848v-0.666
			l0.292-1.573h-1.224V66.717z M76.228,67.356H71.27l-0.288,1.617h5.168C76.181,68.446,76.207,67.907,76.228,67.356z M76.315,65.117
			h-4.638l-0.288,1.599h4.871C76.279,66.195,76.297,65.662,76.315,65.117z M72.873,67.872l0.429-0.462
			c0.463,0.35,0.87,0.672,1.224,0.969l-0.484,0.524C73.573,68.476,73.183,68.132,72.873,67.872z M72.946,65.615l0.429-0.462
			c0.463,0.35,0.87,0.672,1.224,0.969l-0.493,0.533C73.728,66.293,73.341,65.947,72.946,65.615z M86.716,62.487l-0.137,0.204
			c0.986,1.582,2.356,2.713,4.109,3.394c-0.189,0.29-0.35,0.557-0.484,0.8c-1.79-0.912-3.144-2.088-4.063-3.528
			c-0.901,1.368-2.267,2.586-4.1,3.652c-0.134-0.213-0.289-0.447-0.466-0.702c1.899-1.025,3.311-2.299,4.237-3.821H86.716z
			 M85.712,65.544h0.831v5.5h-0.831V65.544z M93.939,70.28c2.654-1.493,4.057-4.111,4.209-7.855h0.804
			c-0.033,0.634-0.097,1.238-0.192,1.813c0.755,2.962,2.173,4.911,4.255,5.847c-0.256,0.272-0.481,0.53-0.676,0.773
			c-1.808-0.995-3.097-2.756-3.867-5.283c-0.667,2.441-1.986,4.234-3.958,5.38C94.35,70.736,94.159,70.511,93.939,70.28z
			 M106.304,65.268h1.972v-1.164h-1.644v-0.586h1.644v-1.2h0.657v1.2h1.342v0.586h-1.342v1.164h0.461
			c0.621-0.634,1.143-1.324,1.566-2.07l0.621,0.329c-0.396,0.616-0.837,1.197-1.324,1.742h1.36v0.586H109.7
			c-0.341,0.341-0.703,0.666-1.087,0.977h2.337v4.15h-0.657v-0.533h-2.328v0.542h-0.657v-3.203c-0.207,0.136-0.417,0.268-0.63,0.395
			c-0.116-0.184-0.265-0.379-0.447-0.586c0.962-0.515,1.809-1.096,2.543-1.742h-2.47V65.268z M110.294,67.392h-2.328v0.977h2.328
			V67.392z M107.965,69.889h2.328v-0.977h-2.328V69.889z M114.037,65.846c0.816,0.652,1.23,1.428,1.242,2.328
			c0,0.942-0.399,1.46-1.196,1.555c-0.31,0.036-0.715,0.024-1.214-0.036c-0.03-0.213-0.07-0.471-0.119-0.773
			c0.42,0.083,0.758,0.124,1.014,0.124c0.597,0,0.861-0.367,0.794-1.102c-0.018-0.581-0.463-1.238-1.333-1.973
			c0.335-0.646,0.724-1.487,1.169-2.524h-1.79v7.58h-0.676v-8.202h3.187v0.693C114.786,64.312,114.427,65.088,114.037,65.846z
			 M120.512,67.641l0.694,0.204c-0.097,0.311-0.208,0.606-0.333,0.884c0.463,0.729,1.152,1.166,2.068,1.311v-2.675h-4.164v-0.622
			h8.784v0.622h-3.89v0.889h3.251v0.604h-3.251v1.235c1.169,0.024,2.523,0.012,4.063-0.036c-0.097,0.255-0.183,0.489-0.256,0.702
			c-1.79,0.006-3.165-0.003-4.127-0.027c-1.287-0.015-2.217-0.48-2.789-1.395c-0.417,0.732-0.945,1.324-1.584,1.777
			c-0.122-0.178-0.271-0.37-0.447-0.578C119.511,69.898,120.171,68.932,120.512,67.641z M120.055,62.629h6.209v3.705h-0.694v-0.355
			h-4.821v0.355h-0.694V62.629z M125.57,63.233h-4.821v0.773h4.821V63.233z M120.749,65.375h4.821v-0.782h-4.821V65.375z
			 M130.986,69.827h4.237v-2.266h-3.232v-0.684h3.232v-2.053h-2.411c-0.405,0.711-0.87,1.354-1.397,1.928
			c-0.128-0.195-0.292-0.403-0.493-0.622c0.858-0.936,1.537-2.079,2.036-3.43l0.749,0.195c-0.161,0.432-0.339,0.847-0.534,1.244
			h2.05v-1.884h0.785v1.884h3.488v0.684h-3.488v2.053h3.232v0.684h-3.232v2.266h3.981v0.666h-9.003V69.827z M143.772,64.708
			c0.627,0.367,1.208,0.746,1.744,1.137c-0.183,0.237-0.35,0.45-0.502,0.64c-0.676-0.527-1.236-0.93-1.68-1.208L143.772,64.708z
			 M144.758,67.339c0.31,0.16,0.569,0.278,0.776,0.355c-0.359,1.114-0.709,2.198-1.05,3.252l-0.813-0.364
			C144.092,69.599,144.454,68.518,144.758,67.339z M144.21,62.398c0.584,0.391,1.132,0.788,1.644,1.191
			c-0.164,0.201-0.332,0.403-0.502,0.604c-0.566-0.48-1.099-0.903-1.598-1.271L144.21,62.398z M146.511,67.232h2.264v-1.493h-2.876
			v-0.675h2.876v-1.488c-0.746,0.036-1.558,0.07-2.438,0.102c-0.043-0.213-0.088-0.438-0.137-0.675
			c2.094-0.053,4.045-0.175,5.853-0.364l0.146,0.702c-0.737,0.071-1.631,0.136-2.684,0.195v1.528h2.977v0.675h-2.977v1.493h2.264
			v3.821h-0.712V70.52h-3.844v0.533h-0.712V67.232z M151.067,67.872h-3.844v2.008h3.844V67.872z M156.127,63.758h0.922
			c0.225-0.539,0.411-1.031,0.557-1.475l0.767,0.213c-0.192,0.453-0.377,0.874-0.557,1.262h1.826v7.073h-0.73v-0.693h-2.054v0.755
			h-0.73V63.758z M158.912,64.424h-2.054v2.159h2.054V64.424z M156.857,69.471h2.054v-2.248h-2.054V69.471z M159.779,65.579
			c0.572-0.883,1.056-1.982,1.452-3.297l0.767,0.187c-0.155,0.447-0.313,0.868-0.475,1.262h2.94
			c-0.073,3.045-0.134,4.961-0.183,5.749c-0.043,0.93-0.545,1.395-1.507,1.395c-0.554,0-1.117-0.018-1.689-0.053
			c-0.037-0.296-0.085-0.56-0.146-0.791h0.027c0.609,0.083,1.166,0.124,1.671,0.124c0.554,0,0.852-0.284,0.895-0.853
			c0.067-0.883,0.116-2.518,0.146-4.905h-2.447c-0.265,0.572-0.539,1.075-0.822,1.511C160.245,65.795,160.035,65.686,159.779,65.579
			z M160.583,66.183l0.557-0.4c0.676,0.776,1.214,1.448,1.616,2.017l-0.676,0.462C161.648,67.576,161.149,66.883,160.583,66.183z
			 M168.21,67.756h6.373v-0.649h0.74v0.649h1.972v0.631h-1.972v1.448c0,0.705-0.396,1.057-1.187,1.057
			c-0.298,0-0.785-0.003-1.461-0.009c-0.03-0.219-0.076-0.474-0.137-0.764c0.56,0.041,1.023,0.062,1.388,0.062
			c0.438,0,0.657-0.184,0.657-0.551v-1.244h-6.373V67.756z M170.63,66.228h4.785c0.493,0,0.776-0.151,0.849-0.453
			c0.073-0.249,0.14-0.578,0.201-0.986c0.201,0.089,0.441,0.181,0.721,0.275c-0.091,0.403-0.177,0.732-0.256,0.986
			c-0.158,0.533-0.606,0.8-1.342,0.8h-5.104c-0.81,0-1.214-0.382-1.214-1.146v-2.986h6.556v2.701h-0.703v-0.302h-5.15v0.515
			C169.972,66.029,170.191,66.228,170.63,66.228z M169.927,68.876l0.447-0.462c0.676,0.515,1.181,0.921,1.516,1.217l-0.53,0.524
			C170.8,69.634,170.322,69.208,169.927,68.876z M169.972,63.331v1.173h5.15v-1.173H169.972z M179.705,64.744
			c0.621,0.438,1.147,0.838,1.58,1.2l-0.53,0.586c-0.511-0.456-1.014-0.88-1.507-1.271L179.705,64.744z M180.599,67.33
			c0.177,0.107,0.408,0.204,0.694,0.293c-0.383,1.197-0.727,2.293-1.032,3.288l-0.749-0.302
			C179.939,69.531,180.301,68.438,180.599,67.33z M180.134,62.442c0.627,0.474,1.12,0.868,1.479,1.182l-0.52,0.551
			c-0.475-0.456-0.953-0.877-1.434-1.262L180.134,62.442z M183.877,69.267l0.447,0.515c-0.791,0.486-1.558,0.909-2.301,1.271
			c-0.128-0.207-0.271-0.397-0.429-0.569C182.459,70.111,183.22,69.705,183.877,69.267z M181.732,63.26h2.817
			c-0.143-0.228-0.297-0.459-0.461-0.693l0.648-0.311c0.259,0.388,0.467,0.723,0.625,1.004h2.607v1.431h-0.667v-0.853h-4.903V64.7
			h-0.667V63.26z M182.216,65.846h2.283v-0.702h-1.881v-0.578h4.456v0.578h-1.936v0.702h2.283v3.483h-0.639v-0.311h-3.926v0.311
			h-0.639V65.846z M182.855,67.17h1.644v-0.773h-1.644V67.17z M182.855,68.467h1.644v-0.773h-1.644V68.467z M186.781,66.397h-1.644
			v0.773h1.644V66.397z M185.137,68.467h1.644v-0.773h-1.644V68.467z M185.302,69.836l0.383-0.507
			c0.834,0.367,1.607,0.729,2.319,1.084l-0.42,0.595C186.805,70.57,186.044,70.179,185.302,69.836z"/>
	</g>
</g>
<g id="图层_2">
</g>
<g id="图层_3">
	<g>
	</g>
	<g>
	</g>
	<g>
	</g>
	<g>
	</g>
	<g>
	</g>
	<g>
	</g>
</g>
</svg>
