<?xml version="1.0" encoding="utf-8"?>
<!-- Generator: Adobe Illustrator 17.0.0, SVG Export Plug-In . SVG Version: 6.00 Build 0)  -->
<!DOCTYPE svg PUBLIC "-//W3C//DTD SVG 1.1//EN" "http://www.w3.org/Graphics/SVG/1.1/DTD/svg11.dtd">
<svg version="1.1" id="图层_1" xmlns="http://www.w3.org/2000/svg" xmlns:xlink="http://www.w3.org/1999/xlink" x="0px" y="0px"
	 width="200px" height="100px" viewBox="0 0 200 100" enable-background="new 0 0 200 100" xml:space="preserve">
<g>
	<path fill="#414042" d="M155.623,58.709c-0.051,0.509-0.197,0.851-0.446,1.085c-0.243,0.221-0.593,0.334-1.066,0.334h-0.668
		c-0.512-0.007-1.121-0.232-1.118-1.255V47.305h5.864v-2.636h-9.354l0.015-6.652l-2.996-0.007l-0.016,6.659h-5.162v2.636h5.093
		c-0.226,2.777-0.721,4.985-1.487,6.613c-0.994,2.309-2.476,4.531-4.722,6.685V45.511c1.01-2.179,1.773-4.406,2.256-6.411
		l-2.839-1.111c-1.453,5.085-3.553,9.205-6.318,12.988l2.241,2.075c0.814-1.104,1.657-2.408,1.657-2.408v12.125l3.003,0.005v-1.771
		l2.232,1.775c2.645-2.765,4.358-5.405,5.357-7.997c0.823-2.102,1.362-4.591,1.609-7.477h0.611v11.823
		c0,0.636,0.044,1.164,0.18,1.605c0.137,0.455,0.348,0.823,0.637,1.086c0.281,0.271,0.657,0.478,1.116,0.608
		c0.465,0.133,0.917,0.191,1.516,0.192l1.818,0.002c1.213,0,2.041-0.213,2.609-0.674c0.613-0.484,1.016-1.274,1.244-2.436
		c0.137-0.834,0.325-2.697,0.445-3.639l-2.958-0.886C155.9,56.159,155.707,58.106,155.623,58.709z M157.655,41.964
		c-0.35-0.29-2.355-1.949-4.808-3.745l-1.657,1.977c1.531,1.22,4.126,3.586,4.517,3.952L157.655,41.964z M160.64,41.237h3.881v2.739
		h-3.881v16.055c-0.016,1,0.209,1.663,0.682,2.044c0.423,0.382,1.19,0.561,2.333,0.564h6.441c1.143,0,1.912-0.168,2.34-0.544
		c0.473-0.37,0.693-1.041,0.692-2.037V43.976h-3.551v-2.739h3.551v-2.63H160.64V41.237z M163.242,46.569h1.267v0.073
		c-0.001,2.057-0.334,4.326-1.137,5.508l-0.13,0.204V46.569z M170.56,58.893c-0.004,0.485-0.07,0.839-0.281,1.053
		c-0.179,0.174-0.448,0.248-0.82,0.248c-0.02,0-5.129,0-5.156,0c-0.372,0-0.643-0.087-0.819-0.264
		c-0.209-0.216-0.243-0.573-0.241-1.049V57.29h7.318L170.56,58.893L170.56,58.893z M169.578,46.569h0.994v4.753h-0.147
		c-0.569,0-0.857-0.399-0.857-1.18L169.578,46.569z M166.664,41.237h0.773v2.739h-0.773V41.237z M166.658,46.644v-0.077h0.773v4.083
		c0,1.454,1.138,2.607,2.608,2.609l0.522,0.009v1.552h-7.318v-2.132l1.766,1.075C165.81,52.808,166.653,49.994,166.658,46.644z
		 M174.788,60.058c-0.012,0.999,0.213,1.668,0.686,2.043c0.424,0.379,1.192,0.58,2.333,0.58h4.924
		c1.144,0.002,1.911-0.177,2.337-0.558c0.476-0.372,0.721-1.043,0.713-2.042v-8.202l-10.992-0.026L174.788,60.058L174.788,60.058z
		 M177.644,54.315h5.272l-0.001,4.591c0,0.482-0.079,0.84-0.287,1.045c-0.18,0.177-0.444,0.257-0.825,0.257
		c-0.004,0-3.053,0-3.068,0c-0.374,0-0.638-0.088-0.818-0.264c-0.208-0.215-0.273-0.567-0.273-1.044L177.644,54.315L177.644,54.315z
		 M181.968,47.856v-3.541l3.68,0.007v-2.487h-3.68v-3.757h-2.877v3.757h-1.948l0.013-0.084c0.146-0.844,0.264-1.684,0.336-2.503
		l-2.637-0.207c-0.152,2.854-1.154,6.955-1.283,7.517l2.404,0.476c0.066-0.253,0.383-1.439,0.619-2.596l0.032-0.137l2.464,0.01
		v3.545h-5.03v2.501h12.355v-2.501C186.416,47.856,181.968,47.856,181.968,47.856z"/>
	<g>
		<path fill="#EF4123" d="M37.612,38.335c-3.388-1.308-4.554,0.627-5.268,2.445l-4.867,10.815l-6.529-11.19
			c-0.908-1.734-3.017-3.447-5.58-1.929c-3.08,1.822-1.236,5.355-1.236,5.355l9.53,16.243l-3.749,8.335
			c-0.452,1.061-1.267,4.038,1.748,5.319c2.999,1.276,4.388-0.583,5.379-2.765l12.44-27.491
			C39.48,43.471,41.115,39.685,37.612,38.335z M50.035,37.89c-6.443-0.007-11.674,5.532-11.69,12.386
			c-0.012,6.852,4.454,12.412,11.637,12.426c7.736,0.015,11.673-5.529,11.685-12.378C61.682,43.476,56.473,37.907,50.035,37.89z
			 M49.992,57.113c-2.871-0.009-5.192-2.968-5.185-6.628c0.01-3.653,2.343-6.611,5.216-6.606c2.869,0.007,5.192,2.977,5.188,6.63
			C55.205,54.164,52.868,57.118,49.992,57.113z M80.667,37.932c-2.047,0.07-3.17,1.352-3.258,3.732L77.39,53.48
			c-0.123,2.494-1.94,4.126-4.313,4.114c-2.491,0-4.181-1.635-4.295-4.128l0.03-11.839c-0.12-2.38-1.146-3.654-3.16-3.737
			c-2.227-0.007-3.248,1.373-3.369,3.755l-0.024,11.82c0.22,5.944,3.805,9.074,10.79,9.211c7.027-0.109,10.561-3.218,10.878-9.183
			L83.95,41.68C83.838,39.295,82.727,38.013,80.667,37.932z"/>
		<path fill="#1B9AD6" d="M125.05,37.931c-2.052,0.07-3.184,1.352-3.262,3.732l-0.023,11.813c-0.129,2.498-1.943,4.124-4.314,4.117
			c-2.484,0-4.177-1.632-4.291-4.128l0.007-11.82c-0.114-2.38-1.13-3.667-3.138-3.755c-2.232-0.002-3.251,1.375-3.369,3.755
			l-0.025,11.82c0.217,5.944,3.807,9.077,10.79,9.211c7.025-0.106,10.565-3.218,10.876-9.183l0.025-11.813
			C128.211,39.298,127.102,38.012,125.05,37.931z M105.138,39.175c-1.846-1.908-4.205-0.819-5.057,0.026l-8.477,8.655l-0.033-6.534
			c-0.051-2.112-1.148-3.461-3.42-3.468c-2.338-0.005-3.304,1.264-3.427,3.448l-0.037,18.28c0.118,2.098,1.287,3.119,3.427,3.128
			c2.237,0.011,3.355-1.098,3.447-3.107l0.026-6.708c0,0,8.91,8.215,9.4,8.66c1.433,1.283,3.797,1.155,4.973-0.07
			c1.244-1.292,0.951-3.941-0.535-5.319l-6.469-5.974l5.818-5.467C104.77,44.725,107.636,41.782,105.138,39.175z"/>
	</g>
</g>
</svg>
